<?xml version="1.0" encoding="utf-8"?>
<!-- Generator: Adobe Illustrator 27.5.0, SVG Export Plug-In . SVG Version: 6.00 Build 0)  -->
<svg version="1.1" xmlns="http://www.w3.org/2000/svg" xmlns:xlink="http://www.w3.org/1999/xlink" x="0px" y="0px"
	 viewBox="0 0 500 500" style="enable-background:new 0 0 500 500;" xml:space="preserve">
<g id="Background_Simple">
	<g>
		<path style="fill:#92E3A9;" d="M477.654,289.52c-13.322,40.379-42.023,84.633-84.26,99.039
			c-63.818,21.773-69.52,74.114-185.346,73.756c-18.059-0.054-34.822-1.945-50.288-5.4c-8.314-1.856-16.255-4.177-23.813-6.912
			C65.335,425.252,27.767,366.391,22.406,303.491c-7.064-82.726,49.234-124.463,85.921-149.046
			c36.687-24.582,78.518-115.956,192.386-116.499c17.361-0.075,34.751,1.626,51.689,5.522
			c38.664,8.877,78.447,30.279,102.344,62.891c1.794,2.45,3.512,4.962,5.164,7.525C492.141,164.036,495.82,234.471,477.654,289.52z"
			/>
		<path style="opacity:0.7;fill:#FFFFFF;" d="M477.654,289.52c-13.322,40.379-42.023,84.633-84.26,99.039
			c-63.818,21.773-69.52,74.114-185.346,73.756c-18.059-0.054-34.822-1.945-50.288-5.4c-8.314-1.856-16.255-4.177-23.813-6.912
			C65.335,425.252,27.767,366.391,22.406,303.491c-7.064-82.726,49.234-124.463,85.921-149.046
			c36.687-24.582,78.518-115.956,192.386-116.499c17.361-0.075,34.751,1.626,51.689,5.522
			c38.664,8.877,78.447,30.279,102.344,62.891c1.794,2.45,3.512,4.962,5.164,7.525C492.141,164.036,495.82,234.471,477.654,289.52z"
			/>
	</g>
</g>
<g id="Floor">
	
		<line style="fill:none;stroke:#263238;stroke-linecap:round;stroke-linejoin:round;stroke-miterlimit:10;" x1="17.482" y1="439.101" x2="479.644" y2="439.101"/>
</g>
<g id="Window">
	<g style="opacity:0.3;">
		<g>
			
				<rect x="56.897" y="46.24" style="fill:none;stroke:#000000;stroke-linecap:round;stroke-linejoin:round;stroke-miterlimit:10;" width="266.562" height="194.492"/>
			<g>
				
					<rect x="66.769" y="53.151" style="fill:none;stroke:#000000;stroke-linecap:round;stroke-linejoin:round;stroke-miterlimit:10;" width="114.523" height="180.67"/>
				
					<rect x="198.076" y="53.151" style="fill:none;stroke:#000000;stroke-linecap:round;stroke-linejoin:round;stroke-miterlimit:10;" width="115.51" height="180.67"/>
			</g>
			
				<line style="fill:none;stroke:#000000;stroke-linecap:round;stroke-linejoin:round;stroke-miterlimit:10;" x1="189.191" y1="48.215" x2="189.191" y2="238.757"/>
		</g>
		<path style="stroke:#000000;stroke-linecap:round;stroke-linejoin:round;stroke-miterlimit:10;" d="M185.597,171.471
			L185.597,171.471c-0.895,0-1.621-0.726-1.621-1.621v-19.451c0-0.895,0.726-1.621,1.621-1.621l0,0c0.895,0,1.621,0.726,1.621,1.621
			v19.451C187.218,170.746,186.492,171.471,185.597,171.471z"/>
		<path style="stroke:#000000;stroke-linecap:round;stroke-linejoin:round;stroke-miterlimit:10;" d="M193.473,171.471
			L193.473,171.471c-0.895,0-1.621-0.726-1.621-1.621v-19.451c0-0.895,0.726-1.621,1.621-1.621l0,0c0.895,0,1.621,0.726,1.621,1.621
			v19.451C195.094,170.746,194.369,171.471,193.473,171.471z"/>
	</g>
</g>
<g id="Blood_Bag">
	<g>
		<g>
			
				<rect x="341.686" y="113.062" transform="matrix(-1 -1.224647e-16 1.224647e-16 -1 686.7696 544.6876)" style="fill:#FFFFFF;stroke:#263238;stroke-linecap:round;stroke-linejoin:round;stroke-miterlimit:10;" width="3.398" height="318.563"/>
			<g>
				
					<rect x="324.289" y="431.502" transform="matrix(-1 -1.224647e-16 1.224647e-16 -1 687.0692 865.2165)" style="fill:#FFFFFF;stroke:#263238;stroke-linecap:round;stroke-linejoin:round;stroke-miterlimit:10;" width="38.491" height="2.212"/>
				<path style="fill:#263238;stroke:#263238;stroke-linecap:round;stroke-linejoin:round;stroke-miterlimit:10;" d="
					M323.716,436.372c0-1.507,1.222-2.728,2.729-2.728c1.507,0,2.728,1.221,2.728,2.728c0,1.507-1.222,2.728-2.728,2.728
					C324.938,439.101,323.716,437.879,323.716,436.372z"/>
				
					<circle style="fill:#263238;stroke:#263238;stroke-linecap:round;stroke-linejoin:round;stroke-miterlimit:10;" cx="360.417" cy="436.372" r="2.728"/>
			</g>
		</g>
		<path style="fill:none;stroke:#263238;stroke-width:3;stroke-linecap:round;stroke-linejoin:round;stroke-miterlimit:10;" d="
			M374.533,113.742v0.85c0,2.971-2.409,5.38-5.38,5.38h-1.133c-2.971,0-5.38-2.409-5.38-5.38v-0.85h-39.077v1.416
			c0,2.971-2.409,5.38-5.38,5.38l0,0c-2.971,0-5.38-2.409-5.38-5.38v-0.85"/>
		
			<line style="fill:none;stroke:#263238;stroke-width:2;stroke-linecap:round;stroke-linejoin:round;stroke-miterlimit:10;" x1="317.427" y1="167.193" x2="317.427" y2="286.828"/>
		<g>
			<g>
				<path style="fill:#FFFFFF;stroke:#263238;stroke-linecap:round;stroke-linejoin:round;stroke-miterlimit:10;" d="
					M314.351,118.468c1.461-1.375,3.727-1.412,5.232-0.086c1.804,1.589,4.113,3.622,5.544,4.874
					c2.623,2.296,3.935,3.279,3.935,3.279h-23.283L314.351,118.468z"/>
				<path style="fill:#FFFFFF;stroke:#263238;stroke-linecap:round;stroke-linejoin:round;stroke-miterlimit:10;" d="
					M310.594,159.656h13.629c2.672,0,4.839-2.166,4.839-4.839v-28.282h-23.306v28.282
					C305.755,157.49,307.922,159.656,310.594,159.656z"/>
				<path style="fill:#92E3A9;stroke:#263238;stroke-linecap:round;stroke-linejoin:round;stroke-miterlimit:10;" d="
					M311.704,158.079h11.409c2.672,0,4.839-2.166,4.839-4.839v-12.172h-21.086v12.172
					C306.866,155.912,309.032,158.079,311.704,158.079z"/>
				
					<rect x="315.922" y="159.757" transform="matrix(-1 -1.224647e-16 1.224647e-16 -1 634.8175 326.7339)" style="fill:#92E3A9;stroke:#263238;stroke-linecap:round;stroke-linejoin:round;stroke-miterlimit:10;" width="2.973" height="7.221"/>
				
					<rect x="308.315" y="128.934" transform="matrix(-1 -1.224647e-16 1.224647e-16 -1 634.6916 284.5472)" style="fill:#FFFFFF;stroke:#263238;stroke-linecap:round;stroke-linejoin:round;stroke-miterlimit:10;" width="18.062" height="26.679"/>
			</g>
			<path style="fill:#FFFFFF;stroke:#263238;stroke-width:3;stroke-linecap:round;stroke-linejoin:round;stroke-miterlimit:10;" d="
				M316.147,120.139c-1.962-0.803-3.344-2.731-3.344-4.981v-0.85"/>
		</g>
	</g>
</g>
<g id="Plant">
	<g>
		<g>
			<path style="fill:#263238;" d="M73.508,324.287l0.002-0.005c0.017-0.044-0.004-0.094-0.047-0.112
				c-0.044-0.019-0.096,0.001-0.115,0.046c-2.659,6.139-4.527,12.584-6.088,19.085c-1.506,6.519-2.597,13.131-3.359,19.785
				l-0.476,5.001c-0.074,0.834-0.164,1.667-0.224,2.503l-0.137,2.509c-0.072,1.673-0.175,3.347-0.222,5.022l0.046,5.026l0.056,2.512
				c0.037,0.837,0.097,1.672,0.154,2.508c0.127,1.671,0.229,3.341,0.382,5.008c0.321,3.331,0.821,6.646,1.337,9.945
				c0.007,0.042,0.043,0.075,0.087,0.074c0.048,0,0.088-0.04,0.087-0.089v-0.005c-0.009-1.675-0.08-3.341-0.117-5.008
				c-0.048-1.666-0.193-3.324-0.17-4.99c0.008-1.666-0.036-3.327-0.054-4.988l-0.046-2.491l0.044-2.491l0.023-4.98l0.135-4.977
				l0.052-2.491c0.032-0.83,0.094-1.658,0.139-2.486l0.306-4.974c0.583-6.619,1.492-13.215,2.818-19.733
				C69.441,336.975,71.078,330.488,73.508,324.287z"/>
			<path style="fill:#263238;" d="M74.221,350.327c0.013-0.045-0.011-0.095-0.055-0.11c-0.046-0.016-0.096,0.008-0.112,0.054
				c-1.433,4.138-2.577,8.37-3.545,12.647c-0.925,4.284-1.65,8.625-2.093,12.999c-0.442,4.358-0.929,8.72-0.989,13.102
				c-0.067,4.379,0.002,8.764,0.466,13.14c0.004,0.04,0.037,0.074,0.079,0.079c0.049,0.005,0.092-0.03,0.097-0.079
				c0.506-4.363,0.815-8.714,1.117-13.065c0.309-4.348,0.35-8.709,0.634-13.06c0.263-4.337,0.807-8.656,1.553-12.947
				C72.104,358.796,73.017,354.52,74.221,350.327z"/>
			<path style="fill:#263238;" d="M88.658,359.487c-0.026-0.041-0.08-0.053-0.121-0.027c-3.614,2.288-6.836,5.169-9.653,8.416
				c-1.384,1.648-2.671,3.373-3.774,5.248l-0.775,1.464l-0.607,1.52c-0.219,0.504-0.372,1.023-0.53,1.542
				c-0.156,0.519-0.33,1.035-0.47,1.558c-1.084,4.184-1.802,8.448-1.997,12.734c-0.174,4.283-0.093,8.573,0.479,12.826
				c0.006,0.04,0.039,0.073,0.081,0.076c0.049,0.004,0.091-0.033,0.094-0.082l1.1-12.696c0.439-4.197,0.707-8.419,1.608-12.518
				c0.115-0.51,0.262-1.01,0.391-1.516c0.131-0.506,0.258-1.013,0.445-1.495l0.516-1.468l0.663-1.386
				c0.978-1.834,2.173-3.589,3.459-5.251c2.578-3.327,5.611-6.36,9.064-8.822l0.005-0.004
				C88.672,359.579,88.683,359.527,88.658,359.487z"/>
			<path style="fill:#263238;" d="M81.671,375.798c-1.967,1.27-3.283,3.268-4.39,5.277c-1.055,2.054-1.885,4.232-2.46,6.465
				c-0.173,0.553-0.309,1.114-0.429,1.677l-0.398,1.688c-0.203,1.133-0.362,2.279-0.426,3.428c-0.015,1.152-0.048,2.302,0.03,3.45
				c0.096,1.148,0.226,2.293,0.452,3.429c0.008,0.033,0.035,0.063,0.07,0.07c0.049,0.01,0.096-0.022,0.106-0.07
				c0.278-1.133,0.46-2.255,0.608-3.375c0.178-1.118,0.352-2.228,0.486-3.34c0.163-1.107,0.31-2.211,0.396-3.326
				c0.155-1.1,0.236-2.225,0.477-3.313c0.386-2.201,1.023-4.349,1.883-6.404c0.856-2.038,1.971-4.069,3.685-5.505l0.013-0.011
				c0.033-0.028,0.041-0.077,0.017-0.114C81.765,375.784,81.711,375.772,81.671,375.798z"/>
			<path style="fill:#263238;" d="M61.425,388.515c-0.475-5.636-1.404-11.216-2.283-16.793c-0.881-5.578-1.853-11.138-2.873-16.689
				c-1.056-5.544-2.161-11.078-3.357-16.592c-0.01-0.046-0.055-0.077-0.102-0.068c-0.048,0.009-0.079,0.055-0.071,0.102
				c0.965,5.556,1.837,11.127,2.662,16.704c0.846,5.573,1.642,11.152,2.347,16.741c0.689,5.592,1.226,11.197,1.927,16.779
				l2.062,16.778c0.005,0.042,0.04,0.076,0.084,0.078c0.049,0.002,0.09-0.036,0.092-0.084c0.064-1.414,0.066-2.827,0.101-4.244
				c0.013-1.416-0.057-2.827-0.083-4.243C61.878,394.152,61.637,391.335,61.425,388.515z"/>
			<path style="fill:#263238;" d="M58.045,388.434c-0.301-2.232-0.712-4.452-1.138-6.664l-0.791-3.29
				c-0.259-1.097-0.505-2.197-0.826-3.28c-1.125-4.366-2.562-8.658-4.308-12.816l-0.676-1.551l-0.751-1.517
				c-0.478-1.022-1.055-1.995-1.603-2.98c-1.178-1.919-2.401-3.837-4.068-5.393c-0.034-0.031-0.087-0.031-0.121,0.001
				c-0.035,0.034-0.036,0.089-0.002,0.124l0.008,0.009c1.54,1.597,2.663,3.568,3.721,5.516c0.49,1.002,1.008,1.987,1.427,3.022
				l0.662,1.534l0.587,1.566c1.561,4.172,2.814,8.461,3.756,12.821c0.514,2.168,0.854,4.379,1.274,6.565l0.528,3.303
				c0.191,1.098,0.426,2.189,0.581,3.294c0.352,2.203,0.757,4.401,1.142,6.606c0.342,2.211,0.745,4.418,1.211,6.626
				c0.008,0.04,0.044,0.073,0.087,0.073c0.049,0,0.088-0.039,0.089-0.088c0.01-2.251-0.042-4.505-0.157-6.754
				C58.545,392.913,58.279,390.676,58.045,388.434z"/>
			<path style="fill:#263238;" d="M53.381,388.722c-1.045-2.957-2.253-5.852-3.569-8.69c-1.351-2.823-2.81-5.592-4.489-8.229
				c-0.026-0.037-0.079-0.052-0.119-0.029c-0.042,0.025-0.056,0.079-0.031,0.121c1.467,2.739,2.707,5.597,3.831,8.487
				c1.144,2.882,2.175,5.807,3.039,8.779c0.881,2.968,1.513,5.994,2.303,8.976c0.83,2.979,1.502,5.99,2.418,9.007
				c0.011,0.036,0.045,0.065,0.085,0.066c0.049,0,0.089-0.039,0.09-0.088c0.044-3.148-0.264-6.294-0.877-9.376
				C55.509,394.644,54.419,391.677,53.381,388.722z"/>
			<path style="fill:#ABABAB;" d="M53.188,398.572c-0.534-1.852-1.446-3.577-2.481-5.203c-1.017-1.634-2.197-3.179-3.611-4.487
				c-0.729-0.631-1.474-1.238-2.297-1.732c-0.811-0.507-1.672-0.935-2.605-1.178c-0.041-0.01-0.084,0.009-0.102,0.049
				c-0.02,0.044,0,0.096,0.044,0.116l0.011,0.005c1.688,0.751,3.116,1.995,4.322,3.357c1.222,1.364,2.198,2.929,3.011,4.559
				c0.855,1.619,1.297,3.408,2.041,5.076c0.328,0.855,0.654,1.716,1.034,2.569c0.322,0.871,0.679,1.74,1.133,2.604l0.002,0.005
				c0.015,0.027,0.043,0.047,0.076,0.048c0.05,0.002,0.092-0.036,0.094-0.087c0.04-0.964-0.016-1.924-0.107-2.88
				C53.614,400.446,53.414,399.507,53.188,398.572z"/>
		</g>
		<path style="fill:#92E3A9;" d="M53.536,346.51c0,0-9.235-2.131-11.367-12.077c-2.131-9.946,4.736-5.683-1.421-21.312
			c-6.157-15.629-4.736-19.181-2.605-23.68c2.131-4.499,3.315-3.078,5.21,2.842c1.894,5.92,8.762,15.155,11.367,32.442
			C57.325,342.011,53.536,346.51,53.536,346.51z"/>
		<path style="fill:#92E3A9;" d="M71.77,329.697c0,0-6.157-2.131-6.394-13.735c-0.237-11.603,4.499-9.235,5.21-23.68
			c0.71-14.445,1.658-24.628,4.262-24.864c2.605-0.237,9.472,7.104,11.84,23.207c2.368,16.103-3.078,26.759-7.814,31.495
			C74.138,326.856,71.77,329.697,71.77,329.697z"/>
		<path style="fill:#92E3A9;" d="M50.221,360.482c0,0-1.421-8.525-4.262-12.55c-2.842-4.026-8.999-7.578-13.024-15.392
			c-4.026-7.815-8.525-11.603-8.288-0.474c0.237,11.13,5.21,16.813,11.367,20.602C42.169,356.456,50.221,360.482,50.221,360.482z"/>
		<path style="fill:#92E3A9;" d="M47.616,375.164c0,0-5.683-10.893-13.971-18.944c-8.288-8.051-14.919-12.077-12.551-8.051
			c2.368,4.026,5.21,3.789,9.236,10.893c4.026,7.104,2.842,12.314,8.525,16.339C44.538,379.426,47.616,375.164,47.616,375.164z"/>
		<path style="fill:#92E3A9;" d="M46.905,389.135c-0.237-0.71-0.473-5.92-8.525-10.183c-8.051-4.262-15.629-2.605-14.682-0.474
			c0.947,2.131,5.92,5.683,10.893,7.815S46.905,389.135,46.905,389.135z"/>
		<path style="fill:#92E3A9;" d="M71.297,360.955c0,0-3.552-4.499-1.658-13.971c1.895-9.472,6.157-7.104,10.893-12.077
			c4.736-4.973,3.789-5.683,8.525-10.893c4.736-5.21,8.999-8.051,10.893-5.92c1.894,2.131-0.947,8.762-3.789,12.551
			c-2.842,3.789-7.341,5.683-9.472,10.419c-2.131,4.736-1.184,12.314-6.631,15.866C74.612,360.482,71.297,360.955,71.297,360.955z"
			/>
		<path style="fill:#92E3A9;" d="M83.136,363.56c0,0,8.525-9.709,14.682-16.813c6.157-7.104,8.525-12.551,8.762-7.815
			c0.237,4.736,2.131,8.525-2.842,14.682C98.766,359.771,83.136,363.56,83.136,363.56z"/>
		<path style="fill:#92E3A9;" d="M78.637,379.189c0,0-0.237-3.789,13.261-12.551c13.498-8.762,19.181-10.419,17.76-6.867
			c-1.421,3.552-7.341,7.104-13.735,13.498C89.53,379.663,78.637,379.189,78.637,379.189z"/>
		<path style="fill:none;stroke:#263238;stroke-linecap:round;stroke-linejoin:round;stroke-miterlimit:10;" d="M54.099,345.501
			c0,0-3.168-16.988-6.483-29.065c-3.315-12.077-5.447-19.418-5.447-19.418"/>
		<path style="fill:none;stroke:#263238;stroke-linecap:round;stroke-linejoin:round;stroke-miterlimit:10;" d="M71.225,329.876
			c0,0,5.755-18.413,7.65-29.543s-0.237-19.418-1.184-24.391"/>
		<path style="fill:none;stroke:#263238;stroke-linecap:round;stroke-linejoin:round;stroke-miterlimit:10;" d="M49.474,360.126
			c0,0-3.516-6.275-8.726-12.432c-5.21-6.157-9.235-9.472-11.603-15.392"/>
		<path style="fill:none;stroke:#263238;stroke-linecap:round;stroke-linejoin:round;stroke-miterlimit:10;" d="M71.297,360.955
			c0,0,1.894-11.367,6.394-17.287c4.499-5.92,13.498-15.155,17.05-21.075"/>
		<path style="fill:none;stroke:#263238;stroke-linecap:round;stroke-linejoin:round;stroke-miterlimit:10;" d="M46.349,388.876
			c0,0-7.969-5.188-13.652-8.03"/>
		<path style="fill:#263238;" d="M69.523,439.101H59.098c-1.845,0-3.512-1.105-4.223-2.808c-3.405-8.161-12.5-31.717-7.023-38.396
			c5.218-6.363,27.698-6.363,32.916,0c5.477,6.679-3.618,30.235-7.023,38.396C73.035,437.995,71.368,439.101,69.523,439.101z"/>
	</g>
</g>
<g id="Character_1">
	<g>
		<g>
			<path style="fill:#FFFFFF;stroke:#263238;stroke-linecap:round;stroke-linejoin:round;stroke-miterlimit:10;" d="
				M250.151,421.445l3.757,4.132l12.021,7.889c0,0,0.751,1.503,0.751,3.005v0.953c0,0.926-0.751,1.677-1.677,1.677h-34.241
				c-0.301,0-0.557-0.218-0.603-0.516c-0.195-1.268-0.67-4.608-0.67-6.997c0-3.005,1.878-12.772,1.878-12.772l17.656-0.751
				L250.151,421.445z"/>
			<path style="fill:#FFFFFF;stroke:#263238;stroke-linecap:round;stroke-linejoin:round;stroke-miterlimit:10;" d="M230.16,438.585
				c0.046,0.298,0.302,0.516,0.603,0.516h34.241c0.926,0,1.676-0.751,1.676-1.677v-0.953c0-0.156-0.012-0.312-0.027-0.466h-36.844
				C229.938,437.091,230.075,438.034,230.16,438.585z"/>
		</g>
		<g>
			<path style="fill:#FFFFFF;stroke:#263238;stroke-linecap:round;stroke-linejoin:round;stroke-miterlimit:10;" d="
				M193.072,418.541l-0.592,4.733c0,0-5.769,11.389-6.212,12.572c-0.444,1.183,0,3.254,0,3.254h25.293c0,0,1.035-5.916-0.296-9.171
				c-1.331-3.254-0.933-8.691-0.933-8.691l-0.694-2.698C209.637,418.541,196.769,416.914,193.072,418.541z"/>
			<path style="fill:#FFFFFF;stroke:#263238;stroke-linecap:round;stroke-linejoin:round;stroke-miterlimit:10;" d="
				M186.268,439.101h25.293c0,0,0.248-1.423,0.345-3.254h-25.637C185.824,437.03,186.268,439.101,186.268,439.101z"/>
		</g>
		<path style="fill:#92E3A9;stroke:#263238;stroke-linecap:round;stroke-linejoin:round;stroke-miterlimit:10;" d="M255.411,283.202
			c0,0-4.884,76.634-4.132,90.534c0.751,13.899-1.127,47.709-1.127,47.709s-6.386,1.127-8.264,1.878
			c-1.878,0.751-11.342,1.508-11.342,1.508s-1.055-6.767-1.055-9.773s0.376-8.264,0.751-10.518c0.376-2.254-6.01-99.55-6.01-99.55
			l-3.757,1.878l-9.767,110.068l-0.376,7.513l-11.27-1.503l-7.322,1.615c0,0-1.318-10.255-0.943-12.509
			c0.376-2.254,2.254-13.148,2.254-13.148l-3.381-116.079C189.671,282.827,238.13,285.081,255.411,283.202z"/>
		<polygon style="fill:#B5B5B5;stroke:#263238;stroke-linecap:round;stroke-linejoin:round;stroke-miterlimit:10;" points="
			269.392,202.999 273.783,230.122 271.975,233.222 258.801,223.665 255.96,207.391 		"/>
		<polygon style="fill:#263238;stroke:#263238;stroke-linecap:round;stroke-linejoin:round;stroke-miterlimit:10;" points="
			257.212,210.943 269.814,208.692 269.814,205.767 258.543,207.907 		"/>
		<path style="fill:#92E3A9;stroke:#263238;stroke-linecap:round;stroke-linejoin:round;stroke-miterlimit:10;" d="M220.829,149.528
			c0,0-0.775,10.333-0.775,12.141s-14.466,4.65-21.44,10.074c-3.922,3.051-8.783,9.558-8.783,13.432s2.066,55.538,2.066,55.538
			l-3.73,45.119c0,0,17.079,4.546,30.512,5.837c13.432,1.292,38.985-6.213,38.985-6.213s-1.963-41.385-1.963-44.226
			c0-2.841-0.517-10.332-0.517-10.332l2.325-21.699l1.033-1.292l15.757-3.1c0,0-4.189-14.591-11.108-25.315
			c-5.166-8.008-20.924-13.174-22.474-13.691c-1.55-0.517-1.55-0.517-1.55-0.517l-0.517-5.425
			C238.652,159.861,224.703,154.436,220.829,149.528z"/>
		<path style="fill:#B5B5B5;stroke:#263238;stroke-linecap:round;stroke-linejoin:round;stroke-miterlimit:10;" d="M239.169,165.285
			l-0.517-5.425c0,0-13.949-5.425-17.824-10.333c0,0-0.775,10.333-0.775,12.141c0,0.71-2.232,1.579-5.36,2.701
			c3.251,4.608,11.421,16.123,13.885,18.998c3.1,3.616,6.2,9.558,6.2,9.558l9.305-25.921c-1.735-0.664-2.982-1.075-3.363-1.202
			C239.169,165.285,239.169,165.285,239.169,165.285z"/>
		<path style="fill:#263238;stroke:#263238;stroke-linecap:round;stroke-linejoin:round;stroke-miterlimit:10;" d="M239.113,164.699
			l-0.461-4.839c0,0-13.949-5.425-17.824-10.333c0,0-0.119,1.585-0.263,3.619c0.998,2.08,7.001,14.119,12.078,13.916
			C235.218,166.96,237.45,165.855,239.113,164.699z"/>
		<path style="fill:#B5B5B5;stroke:#263238;stroke-linecap:round;stroke-linejoin:round;stroke-miterlimit:10;" d="M253.376,213.074
			c0,0,16.532,12.658,19.115,14.724c2.583,2.066,2.325,5.425,0.517,8.524c-1.808,3.1-10.333,6.458-13.174,4.133
			c-2.842-2.325-9.299-14.982-10.074-16.532c-0.775-1.55-3.358-8.266-3.358-8.266L253.376,213.074z"/>
		<path style="fill:#B5B5B5;stroke:#263238;stroke-linecap:round;stroke-linejoin:round;stroke-miterlimit:10;" d="M252.085,208.166
			c0,0-5.425-2.841-8.524-3.616c-3.1-0.775-6.716,6.458-6.716,6.458l16.274-0.258L252.085,208.166z"/>
		<polygon style="fill:#263238;stroke:#263238;stroke-linecap:round;stroke-linejoin:round;stroke-miterlimit:10;" points="
			228.32,207.907 215.662,238.389 244.594,238.389 257.509,207.649 		"/>
		<g>
			<path style="fill:#B5B5B5;stroke:#263238;stroke-linecap:round;stroke-linejoin:round;stroke-miterlimit:10;" d="
				M206.363,226.764c0,0,11.882-8.524,13.432-9.041c1.55-0.517,5.683-1.55,5.683-1.55l-1.808,3.616l8.524,0.258
				c0,0,1.55-0.258,1.292,2.325c-0.258,2.583-4.65,3.1-4.65,3.1s-2.067,8.008-5.683,8.783c-3.617,0.775-16.016,0-16.016,0
				s-24.023,15.499-27.123,11.108c-3.1-4.392-0.517-41.589-0.517-41.589l17.307,3.875l-0.517,19.89L206.363,226.764z"/>
			<polygon style="fill:#263238;stroke:#263238;stroke-linecap:round;stroke-linejoin:round;stroke-miterlimit:10;" points="
				179.35,208.917 196.677,211.618 196.677,210.268 179.575,205.542 			"/>
			
				<line style="fill:#FFFFFF;stroke:#263238;stroke-linecap:round;stroke-linejoin:round;stroke-miterlimit:10;" x1="196.289" y1="227.539" x2="185.698" y2="227.798"/>
		</g>
		<path style="fill:#92E3A9;stroke:#263238;stroke-linecap:round;stroke-linejoin:round;stroke-miterlimit:10;" d="M204.813,169.16
			c0,0-11.624,1.033-18.857,6.975c-2.122,1.743-11.366,28.156-11.366,28.156l23.507,5.941l1.808-9.041"/>
		<g>
			<path style="fill:#B5B5B5;stroke:#263238;stroke-linecap:round;stroke-linejoin:round;stroke-miterlimit:10;" d="
				M218.834,134.401c0,0-3.227-4.841-4.518,0c-1.291,4.841-0.009,6.859,1.927,8.15c1.936,1.291,2.591,1.209,2.591,1.209
				s0.323,6.454,2.582,10.65c2.259,4.195,7.423,9.036,12.263,9.359c4.841,0.323,8.068-3.227,9.682-5.486
				c1.614-2.259,6.777-14.845,6.777-20.977c0-6.132-0.645-17.427-3.873-20.977c-3.227-3.55-13.877-6.777-21.622-3.55
				C216.898,116.006,217.866,131.173,218.834,134.401z"/>
			<path style="fill:#263238;" d="M233.829,139.194c0,1.181-0.539,2.139-1.203,2.139s-1.203-0.958-1.203-2.139
				c0-1.181,0.539-2.139,1.203-2.139S233.829,138.013,233.829,139.194z"/>
			<path style="fill:#263238;" d="M246.661,139.194c0,1.181-0.539,2.139-1.203,2.139c-0.664,0-1.203-0.958-1.203-2.139
				c0-1.181,0.539-2.139,1.203-2.139C246.122,137.055,246.661,138.013,246.661,139.194z"/>
			<g>
				<path style="fill:#263238;" d="M240.646,124.224c3.392,0,6.644-0.796,8.272-1.266c-0.587-2.85-1.436-5.291-2.653-6.63
					c-3.227-3.55-13.877-6.777-21.622-3.55c-7.745,3.227-6.777,18.395-5.809,21.622l0,0c1.374,0.38,2.706-0.724,2.588-2.144
					l-0.023-0.28c0,0,3.784-2.51,3.784-5.183s-0.041-5.243-0.041-5.243S235.834,124.224,240.646,124.224z"/>
				<path style="fill:#263238;" d="M217.803,133.181l1.031,1.22C218.834,134.401,218.408,133.762,217.803,133.181z"/>
			</g>
			<path style="fill:none;stroke:#263238;stroke-linecap:round;stroke-linejoin:round;stroke-miterlimit:10;" d="M239.994,136.3
				c0,0,1.25,7.709,1.042,9.376c-0.208,1.667-2.292,2.5-4.375,2.5c-2.083,0-3.959-1.667-3.959-1.667"/>
			<path style="fill:none;stroke:#263238;stroke-linecap:round;stroke-linejoin:round;stroke-miterlimit:10;" d="M231.869,151.509
				c0,0,3.75,2.917,8.334,0"/>
			<path style="fill:none;stroke:#263238;stroke-width:2;stroke-linecap:round;stroke-linejoin:round;stroke-miterlimit:10;" d="
				M235.032,134.382c0,0-3.75-2.292-7.917-0.417"/>
			<path style="fill:none;stroke:#263238;stroke-width:2;stroke-linecap:round;stroke-linejoin:round;stroke-miterlimit:10;" d="
				M241.613,134.708c0,0,3.333-2.083,6.25,0.208"/>
		</g>
	</g>
</g>
<g id="Character_2">
	<g>
		<g>
			
				<rect x="165.999" y="266.717" style="fill:#263238;stroke:#263238;stroke-linecap:round;stroke-linejoin:round;stroke-miterlimit:10;" width="3.297" height="67.597"/>
			
				<rect x="200.622" y="266.717" style="fill:#263238;stroke:#263238;stroke-linecap:round;stroke-linejoin:round;stroke-miterlimit:10;" width="3.297" height="67.597"/>
			
				<rect x="235.245" y="266.717" style="fill:#263238;stroke:#263238;stroke-linecap:round;stroke-linejoin:round;stroke-miterlimit:10;" width="3.297" height="67.597"/>
			
				<rect x="269.867" y="266.717" style="fill:#263238;stroke:#263238;stroke-linecap:round;stroke-linejoin:round;stroke-miterlimit:10;" width="3.297" height="67.597"/>
			
				<rect x="304.49" y="266.717" style="fill:#263238;stroke:#263238;stroke-linecap:round;stroke-linejoin:round;stroke-miterlimit:10;" width="3.297" height="67.597"/>
			
				<rect x="155.283" y="260.122" style="fill:#263238;stroke:#263238;stroke-linecap:round;stroke-linejoin:round;stroke-miterlimit:10;" width="176.411" height="6.595"/>
		</g>
		<g>
			<g>
				<path style="fill:#FFFFFF;stroke:#263238;stroke-linecap:round;stroke-linejoin:round;stroke-miterlimit:10;" d="
					M461.064,267.409c-41.342-11.712-85.082-11.719-126.36-0.083c-3.576,1.008-6.044,4.279-6.044,7.994v67.238h15.663v-4.073
					c0-4.125,3.344-7.468,7.468-7.468h86.458c4.125,0,7.468,3.344,7.468,7.468v4.073h21.381V275.39
					C467.098,271.679,464.634,268.42,461.064,267.409z M339.324,291.632v-11.017c0-2.936,2.088-5.522,5.113-6.318
					c4.032-1.062,8.094-1.987,12.175-2.804C351.075,282.294,344.513,288.319,339.324,291.632z M420.162,278.258
					c-20.609-4.946-51.11,0-51.11,0V269.4c16.931-2.336,34.111-2.594,51.11-0.771V278.258z M456.434,293.026
					c-12.151-6.601-18.369-15.038-21.526-22.28c5.511,0.991,10.993,2.178,16.421,3.615c3.02,0.799,5.105,3.376,5.105,6.309V293.026z
					"/>
				<path style="fill:#FFFFFF;stroke:#263238;stroke-linecap:round;stroke-linejoin:round;stroke-miterlimit:10;" d="
					M455.27,267.409c-41.342-11.712-85.082-11.719-126.36-0.083c-3.576,1.008-6.044,4.279-6.044,7.994v67.238h15.663v-4.073
					c0-4.125,3.344-7.468,7.468-7.468h86.459c4.125,0,7.468,3.344,7.468,7.468v4.073h21.381V275.39
					C461.304,271.679,458.84,268.42,455.27,267.409z M333.53,291.632v-11.017c0-2.936,2.088-5.522,5.113-6.318
					c4.032-1.062,8.094-1.987,12.175-2.804C345.282,282.294,338.72,288.319,333.53,291.632z M414.369,278.258
					c-20.609-4.946-51.11,0-51.11,0V269.4c16.931-2.336,34.111-2.594,51.11-0.771V278.258z M450.64,293.026
					c-12.151-6.601-18.369-15.038-21.526-22.28c5.511,0.991,10.993,2.178,16.421,3.615c3.02,0.799,5.105,3.376,5.105,6.309V293.026z
					"/>
				
					<rect x="340.177" y="297.218" style="fill:#92E3A9;stroke:#263238;stroke-linecap:round;stroke-linejoin:round;stroke-miterlimit:10;" width="96.449" height="24.73"/>
			</g>
			<g>
				<polygon style="fill:#92E3A9;stroke:#263238;stroke-linecap:round;stroke-linejoin:round;stroke-miterlimit:10;" points="
					446.375,215.677 335.055,215.677 275.127,322.956 393.382,319.392 				"/>
				
					<rect x="182.637" y="319.392" style="fill:#92E3A9;stroke:#263238;stroke-linecap:round;stroke-linejoin:round;stroke-miterlimit:10;" width="212.382" height="14.014"/>
				<polygon style="fill:#92E3A9;stroke:#263238;stroke-linecap:round;stroke-linejoin:round;stroke-miterlimit:10;" points="
					446.375,229.691 393.382,333.406 393.382,319.392 446.375,215.677 				"/>
			</g>
		</g>
		<path style="fill:#FFFFFF;stroke:#263238;stroke-linecap:round;stroke-linejoin:round;stroke-miterlimit:10;" d="M356.851,203.917
			c0,0,42.12-3.859,53.326-1.513l4.244,0.513c0,0,4.392-1.114,6.155,0.308c1.763,1.423-0.012,2.901-0.194,4.21
			c-0.182,1.308-0.649,2.969-0.649,2.969s0.828,13.767-2.041,23.095c-2.869,9.329-11.45,22.491-11.45,22.491
			s1.012,3.436,0.192,4.813c-0.819,1.376-2.685-1.002-2.685-1.002s-19.637,0.166-37.01,0.413s-25.963-1.735-25.963-1.735
			s-4.324,1.751-5.348,1.216c-1.024-0.535,1.605-3.072,1.605-3.072s1.082-4.949,3.53-15.199
			c2.448-10.25,10.917-30.489,10.917-30.489s-1.204-8.249,2.084-7.634C356.851,203.917,356.851,203.917,356.851,203.917z"/>
		<g>
			<path style="fill:#263238;stroke:#263238;stroke-linecap:round;stroke-linejoin:round;stroke-miterlimit:10;" d="
				M331.184,269.146c7.73,0.591,15.674,1.12,21.821,1.346c8.094,0.298,20.365,2.85,31.246,5.514c1.311-4.079,2.32-7.261,2.32-7.261
				l7.783-2.335c0,0,10.118-1.038,10.118-2.335c0-1.297,0.778-23.869-0.519-26.723c-1.297-2.854-10.378-5.448-27.76-4.67
				c-4.414,0.198-12.453-1.297-12.453-1.297s-11.029,1.816-14.921,1.816c-3.892,0-7.783-0.519-10.897,2.854
				c-0.137,0.149-0.291,0.337-0.453,0.543l-20.158,24.165l10.381,1.997L331.184,269.146z"/>
			<g>
				<path style="fill:#FFFFFF;stroke:#263238;stroke-linecap:round;stroke-linejoin:round;stroke-miterlimit:10;" d="
					M366.092,191.324c-1.056,1.642-2.683,5.79-3.619,7.503c-1.772,3.245-0.691,4.134-2.111,7.298c0,0-5.887,2.74-5.209,3.894
					c0.678,1.154,1.945,4.083,1.945,4.083s-1.674,11.586-0.937,12.326c0.738,0.74,6.62,0.957,6.62,0.957l-1.507,5.354
					c0,0-6.271,4.39-6.062,11.079c0.209,6.689,12.542,2.508,17.141-0.209c4.599-2.717,8.152-10.034,8.152-10.034
					s-0.792-2.053-0.376-3.471c0.416-1.418,3.646-6.232,3.646-6.232s9.384-7.937,10.989-13.196
					c1.605-5.26-1.636-12.064-7.895-16.982C380.611,188.776,368.49,189.348,366.092,191.324z"/>
				<path style="fill:#263238;stroke:#263238;stroke-linecap:round;stroke-linejoin:round;stroke-miterlimit:10;" d="
					M368.43,185.754c-2.468,0.526-4.345,1.6-4.168,3.616c0.319,3.637,3.807,4.352,3.807,4.352s12.441,3.065,12.202,4.72
					c-0.239,1.655-5.653,4.041-5.005,5.402c0.648,1.361,2.48,1.837,2.48,1.837s-2.076,4.135-0.304,5.025
					c1.772,0.89,1.952-0.352,3.313-1c1.361-0.648,5.142,0.954,4.514,5.299c-0.628,4.345-6.186,4.809-6.186,4.809l3.51,4.943
					c0,0,6.63-4.956,10.832-7.728c4.203-2.772,8.028-10.245,5.351-18.024c-2.677-7.779-16.357-12.502-20.467-13.308
					C376.6,185.363,371.923,185.01,368.43,185.754z"/>
				<path style="fill:none;stroke:#263238;stroke-linecap:round;stroke-linejoin:round;stroke-miterlimit:10;" d="M358.009,216.557
					c0,0,2.333,1.393,5.942-0.197"/>
				<path style="fill:#263238;" d="M365.741,206.823c-0.255,0.767-0.773,1.285-1.156,1.157c-0.383-0.128-0.487-0.853-0.232-1.619
					c0.255-0.767,0.773-1.285,1.156-1.157C365.892,205.331,365.996,206.056,365.741,206.823z"/>
				<path style="fill:none;stroke:#263238;stroke-linecap:round;stroke-linejoin:round;stroke-miterlimit:10;" d="M364.123,202.023
					c0,0,2.812-1.917,4.965,0.718"/>
				<path style="fill:#263238;stroke:#263238;stroke-linecap:round;stroke-linejoin:round;stroke-miterlimit:10;" d="
					M356.16,226.428c0,0,6.326,0.069,8.278-0.282c1.952-0.352,8.014-1.376,8.014-1.376l-10.354,4.417l0.683-1.802
					C362.781,227.385,357.459,227.672,356.16,226.428z"/>
			</g>
			<path style="fill:#FFFFFF;stroke:#263238;stroke-linecap:round;stroke-linejoin:round;stroke-miterlimit:10;" d="
				M408.743,302.643c0,0,0,0-1.884-2.128c-1.883-2.127-0.328-6.719-5.12-10.404c-4.792-3.686-11.426-10.689-11.426-10.689
				s-11.795-4.055-18.798-5.897c-7.003-1.843-29.487-8.478-44.968-3.317c0,0-3.317,1.843-3.686,3.317s-3.686,5.529-3.686,5.529
				s-48.654,2.949-57.131,4.055c-8.477,1.106-24.327,5.897-29.855,8.109c-5.529,2.212-21.378,5.16-21.378,5.16
				s-8.846-2.949-11.795-2.212c-2.949,0.737-9.952,8.478-11.057,9.952c-1.106,1.474-4.792,4.423-4.792,4.423v11.058h21.326
				c-0.623,4.587-0.575,10.32-0.575,10.32s204.824,1.843,205.192,0C409.48,328.075,408.743,302.643,408.743,302.643z"/>
			<path style="fill:none;stroke:#263238;stroke-linecap:round;stroke-linejoin:round;stroke-miterlimit:10;" d="M372.193,318.96
				c1.924,0.326,3.638,0.772,4.483,1.375c2.58,1.843,2.58,6.635,2.58,6.635"/>
			<path style="fill:none;stroke:#263238;stroke-linecap:round;stroke-linejoin:round;stroke-miterlimit:10;" d="M363.407,318.124
				c0,0,1.273,0.044,3.046,0.177"/>
			<path style="fill:none;stroke:#263238;stroke-linecap:round;stroke-linejoin:round;stroke-miterlimit:10;" d="M321.757,318.124
				c0,0,10.689,0.369,13.269,2.212c2.58,1.843,2.58,6.635,2.58,6.635"/>
			<path style="fill:none;stroke:#263238;stroke-linecap:round;stroke-linejoin:round;stroke-miterlimit:10;" d="M249.882,318.124
				c0,0,10.689,0.369,13.269,2.212c2.58,1.843,2.58,6.635,2.58,6.635"/>
			<path style="fill:none;stroke:#263238;stroke-linecap:round;stroke-linejoin:round;stroke-miterlimit:10;" d="M318.071,318.124
				c0,0,7.955,0.369,9.875,2.212c1.92,1.843,1.92,6.635,1.92,6.635"/>
			<g>
				<path style="fill:#FFFFFF;stroke:#263238;stroke-linecap:round;stroke-linejoin:round;stroke-miterlimit:10;" d="
					M382.508,269.778c0,0-26.393-4.081-27.399-4.081c-1.006,0-8.647,1.571-11.758,3.189s-2.613,2.737-0.746,3.733
					c1.866,0.995,3.608,1.12,5.101,1.493c1.493,0.373,4.852,0.622,4.852,0.622s2.488-0.124,4.23-0.373
					c1.742-0.249,3.235-1.12,3.235-1.12s19.598,8.925,22.087,9.672L382.508,269.778z"/>
				<path style="fill:#263238;stroke:#263238;stroke-linecap:round;stroke-linejoin:round;stroke-miterlimit:10;" d="
					M390.07,247.689l-3.498,21.057l-4.064,1.033l-0.398,13.134c0,0,12.537,2.786,14.328,2.985c1.791,0.199,7.164,0.995,7.363-4.776
					c0.199-5.771,1.194-32.238,1.194-32.238"/>
				<g>
					<path style="fill:#FFFFFF;stroke:#263238;stroke-linecap:round;stroke-linejoin:round;stroke-miterlimit:10;" d="
						M353.241,265.767c0,0,3.337,0.607,4.348,0.202c1.011-0.404,1.82,0.101,1.719,1.112c-0.101,1.011-2.225,1.517-2.225,1.517
						L353.241,265.767z"/>
					<path style="fill:#FFFFFF;stroke:#263238;stroke-linecap:round;stroke-linejoin:round;stroke-miterlimit:10;" d="
						M343.034,265.486c0,0,7.411-0.99,8.795-0.437c1.384,0.553,9.41,4.705,9.548,5.397c0.138,0.692-0.83,1.107-0.83,1.107
						s-0.138,0.969-1.799,1.799c-1.661,0.83-1.661,0.83-1.661,0.83s-1.788,0.761-2.491,1.107c-0.703,0.346-1.522,0-3.321-0.553
						c-1.799-0.554-4.428-1.799-4.843-1.799c-0.415,0-4.151-0.553-5.812-1.245c-1.66-0.692-3.452-0.675-3.452-0.675
						s-8.587,1.505-11.355,2.474c-2.768,0.969-9.41-1.107-11.347-3.46c-1.937-2.352-0.138-9.133,4.428-10.378
						c4.566-1.245,16.97,3.378,17.939,3.655C337.803,263.584,343.034,265.486,343.034,265.486z"/>
					
						<line style="fill:none;stroke:#263238;stroke-linecap:round;stroke-linejoin:round;stroke-miterlimit:10;" x1="351.624" y1="267.486" x2="360.547" y2="271.553"/>
					
						<line style="fill:none;stroke:#263238;stroke-linecap:round;stroke-linejoin:round;stroke-miterlimit:10;" x1="350.006" y1="269.407" x2="358.749" y2="273.352"/>
					
						<line style="fill:none;stroke:#263238;stroke-linecap:round;stroke-linejoin:round;stroke-miterlimit:10;" x1="348.691" y1="271.228" x2="355.972" y2="274.564"/>
				</g>
			</g>
			<path style="fill:none;stroke:#263238;stroke-linecap:round;stroke-linejoin:round;stroke-miterlimit:10;" d="M379.197,295.455
				c3.042,2.357,4.483,3.871,4.483,3.871"/>
			<path style="fill:none;stroke:#263238;stroke-linecap:round;stroke-linejoin:round;stroke-miterlimit:10;" d="M324.705,279.422
				c0,0,18.429-3.317,35.016,4.423c6.03,2.814,10.842,5.628,14.525,8.07"/>
			<path style="fill:none;stroke:#263238;stroke-linecap:round;stroke-linejoin:round;stroke-miterlimit:10;" d="M339.449,283.108
				c0,0,25.433,6.634,40.545,18.798c15.112,12.163,14.743,15.849,13.638,15.849"/>
			<path style="fill:none;stroke:#263238;stroke-linecap:round;stroke-linejoin:round;stroke-miterlimit:10;" d="M382.574,303.749"
				/>
		</g>
		<g>
			<g>
				<g>
					
						<rect x="112.211" y="336.779" style="fill:#FFFFFF;stroke:#263238;stroke-linecap:round;stroke-linejoin:round;stroke-miterlimit:10;" width="7.771" height="78.36"/>
					
						<rect x="114.752" y="336.779" style="fill:#FFFFFF;stroke:#263238;stroke-linecap:round;stroke-linejoin:round;stroke-miterlimit:10;" width="7.771" height="78.36"/>
					
						<rect x="114.802" y="387.292" style="fill:#FFFFFF;stroke:#263238;stroke-linecap:round;stroke-linejoin:round;stroke-miterlimit:10;" width="113.331" height="8.419"/>
					<g>
						
							<ellipse transform="matrix(0.7071 -0.7071 0.7071 0.7071 -268.3177 204.5209)" style="fill:#263238;stroke:#263238;stroke-linecap:round;stroke-linejoin:round;stroke-miterlimit:10;" cx="112.72" cy="426.149" rx="12.952" ry="12.952"/>
						<path style="fill:#FFFFFF;stroke:#263238;stroke-linecap:round;stroke-linejoin:round;stroke-miterlimit:10;" d="
							M122.714,420.365v-10.939h-12.786v8.366c-2.881,1.701-4.82,4.829-4.82,8.418c0,5.401,4.378,9.779,9.779,9.779
							c5.401,0,9.779-4.378,9.779-9.779C124.666,424.016,123.934,421.997,122.714,420.365z"/>
					</g>
					
						<rect x="226.837" y="336.779" style="fill:#FFFFFF;stroke:#263238;stroke-linecap:round;stroke-linejoin:round;stroke-miterlimit:10;" width="7.771" height="78.36"/>
					
						<rect x="229.378" y="336.779" style="fill:#FFFFFF;stroke:#263238;stroke-linecap:round;stroke-linejoin:round;stroke-miterlimit:10;" width="7.771" height="78.36"/>
					<g>
						
							<ellipse transform="matrix(0.7071 -0.7071 0.7071 0.7071 -234.5978 285.9281)" style="fill:#263238;stroke:#263238;stroke-linecap:round;stroke-linejoin:round;stroke-miterlimit:10;" cx="227.847" cy="426.149" rx="12.952" ry="12.952"/>
						<path style="fill:#FFFFFF;stroke:#263238;stroke-linecap:round;stroke-linejoin:round;stroke-miterlimit:10;" d="
							M237.841,420.365v-10.939h-12.786v8.366c-2.881,1.701-4.82,4.829-4.82,8.418c0,5.401,4.378,9.779,9.779,9.779
							c5.401,0,9.779-4.378,9.779-9.779C239.793,424.016,239.061,421.997,237.841,420.365z"/>
					</g>
				</g>
				<g>
					
						<rect x="309.225" y="336.779" style="fill:#FFFFFF;stroke:#263238;stroke-linecap:round;stroke-linejoin:round;stroke-miterlimit:10;" width="7.771" height="78.36"/>
					
						<rect x="311.766" y="336.779" style="fill:#FFFFFF;stroke:#263238;stroke-linecap:round;stroke-linejoin:round;stroke-miterlimit:10;" width="7.771" height="78.36"/>
					
						<rect x="311.816" y="387.292" style="fill:#FFFFFF;stroke:#263238;stroke-linecap:round;stroke-linejoin:round;stroke-miterlimit:10;" width="113.331" height="8.419"/>
					<g>
						
							<ellipse transform="matrix(0.9729 -0.231 0.231 0.9729 -90.0752 83.0882)" style="fill:#263238;stroke:#263238;stroke-linecap:round;stroke-linejoin:round;stroke-miterlimit:10;" cx="309.734" cy="426.149" rx="12.952" ry="12.952"/>
						<path style="fill:#FFFFFF;stroke:#263238;stroke-linecap:round;stroke-linejoin:round;stroke-miterlimit:10;" d="
							M319.728,420.365v-10.939h-12.786v8.366c-2.881,1.701-4.82,4.829-4.82,8.418c0,5.401,4.378,9.779,9.779,9.779
							c5.401,0,9.779-4.378,9.779-9.779C321.68,424.016,320.948,421.997,319.728,420.365z"/>
					</g>
					
						<rect x="423.851" y="336.779" style="fill:#FFFFFF;stroke:#263238;stroke-linecap:round;stroke-linejoin:round;stroke-miterlimit:10;" width="7.771" height="78.36"/>
					
						<rect x="426.392" y="336.779" style="fill:#FFFFFF;stroke:#263238;stroke-linecap:round;stroke-linejoin:round;stroke-miterlimit:10;" width="7.771" height="78.36"/>
					<g>
						
							<ellipse transform="matrix(0.7071 -0.7071 0.7071 0.7071 -176.8938 425.2379)" style="fill:#263238;stroke:#263238;stroke-linecap:round;stroke-linejoin:round;stroke-miterlimit:10;" cx="424.861" cy="426.149" rx="12.952" ry="12.952"/>
						<path style="fill:#FFFFFF;stroke:#263238;stroke-linecap:round;stroke-linejoin:round;stroke-miterlimit:10;" d="
							M434.855,420.365v-10.939h-12.786v8.366c-2.881,1.701-4.82,4.829-4.82,8.418c0,5.401,4.378,9.779,9.779,9.779
							c5.401,0,9.779-4.378,9.779-9.779C436.807,424.016,436.075,421.997,434.855,420.365z"/>
					</g>
				</g>
			</g>
			
				<rect x="182.637" y="328.543" style="fill:#FFFFFF;stroke:#263238;stroke-linecap:round;stroke-linejoin:round;stroke-miterlimit:10;" width="276.157" height="14.014"/>
			<g>
				
					<rect x="90.31" y="328.543" style="fill:#FFFFFF;stroke:#263238;stroke-linecap:round;stroke-linejoin:round;stroke-miterlimit:10;" width="118.706" height="14.014"/>
				<g>
					
						<rect x="266.72" y="266.717" style="fill:#FFFFFF;stroke:#263238;stroke-linecap:round;stroke-linejoin:round;stroke-miterlimit:10;" width="3.297" height="67.597"/>
					
						<rect x="301.343" y="266.717" style="fill:#FFFFFF;stroke:#263238;stroke-linecap:round;stroke-linejoin:round;stroke-miterlimit:10;" width="3.297" height="67.597"/>
					
						<rect x="335.966" y="266.717" style="fill:#FFFFFF;stroke:#263238;stroke-linecap:round;stroke-linejoin:round;stroke-miterlimit:10;" width="3.297" height="67.597"/>
					
						<rect x="370.588" y="266.717" style="fill:#FFFFFF;stroke:#263238;stroke-linecap:round;stroke-linejoin:round;stroke-miterlimit:10;" width="3.297" height="67.597"/>
					
						<rect x="405.211" y="266.717" style="fill:#FFFFFF;stroke:#263238;stroke-linecap:round;stroke-linejoin:round;stroke-miterlimit:10;" width="3.297" height="67.597"/>
					
						<rect x="256.004" y="260.122" style="fill:#FFFFFF;stroke:#263238;stroke-linecap:round;stroke-linejoin:round;stroke-miterlimit:10;" width="176.411" height="6.595"/>
				</g>
				<g>
					<path style="fill:#FFFFFF;stroke:#263238;stroke-linecap:round;stroke-linejoin:round;stroke-miterlimit:10;" d="
						M220.264,267.409c-41.342-11.712-85.082-11.719-126.36-0.083c-3.576,1.008-6.044,4.279-6.044,7.994v67.238h15.663v-4.073
						c0-4.125,3.344-7.468,7.468-7.468h86.459c4.125,0,7.468,3.344,7.468,7.468v4.073h21.381V275.39
						C226.298,271.679,223.834,268.42,220.264,267.409z M98.524,291.632v-11.017c0-2.936,2.088-5.522,5.113-6.318
						c4.032-1.062,8.094-1.987,12.175-2.804C110.275,282.294,103.714,288.319,98.524,291.632z M179.363,278.258
						c-20.609-4.946-51.11,0-51.11,0V269.4c16.931-2.336,34.11-2.594,51.11-0.771V278.258z M215.634,293.026
						c-12.151-6.601-18.369-15.038-21.526-22.28c5.511,0.991,10.993,2.178,16.421,3.615c3.02,0.799,5.105,3.376,5.105,6.309V293.026
						z"/>
					<path style="fill:#FFFFFF;stroke:#263238;stroke-linecap:round;stroke-linejoin:round;stroke-miterlimit:10;" d="
						M214.47,267.409c-41.342-11.712-85.082-11.719-126.36-0.083c-3.576,1.008-6.044,4.279-6.044,7.994l0,67.238h15.663v-4.073
						c0-4.125,3.344-7.468,7.468-7.468h86.459c4.124,0,7.468,3.344,7.468,7.468v4.073h21.381V275.39
						C220.505,271.679,218.04,268.42,214.47,267.409z M92.731,291.632v-11.017c0-2.936,2.088-5.522,5.113-6.318
						c4.032-1.062,8.094-1.987,12.175-2.804C104.482,282.294,97.92,288.319,92.731,291.632z M173.569,278.258
						c-20.609-4.946-51.11,0-51.11,0V269.4c16.931-2.336,34.11-2.594,51.11-0.771V278.258z M209.84,293.026
						c-12.151-6.601-18.369-15.038-21.526-22.28c5.511,0.991,10.993,2.178,16.421,3.615c3.02,0.799,5.105,3.376,5.105,6.309V293.026
						z"/>
					
						<rect x="99.378" y="297.218" style="fill:#92E3A9;stroke:#263238;stroke-linecap:round;stroke-linejoin:round;stroke-miterlimit:10;" width="96.449" height="24.73"/>
				</g>
				<g>
					
						<rect x="455.299" y="326.102" style="fill:#92E3A9;stroke:#263238;stroke-linecap:round;stroke-linejoin:round;stroke-miterlimit:10;" width="11.799" height="16.455"/>
					
						<rect x="217.655" y="326.102" style="fill:#92E3A9;stroke:#263238;stroke-linecap:round;stroke-linejoin:round;stroke-miterlimit:10;" width="11.799" height="16.455"/>
				</g>
			</g>
		</g>
	</g>
</g>
</svg>
