<?xml version="1.0" encoding="utf-8"?>
<!-- Generator: Adobe Illustrator 27.5.0, SVG Export Plug-In . SVG Version: 6.00 Build 0)  -->
<svg version="1.1" xmlns="http://www.w3.org/2000/svg" xmlns:xlink="http://www.w3.org/1999/xlink" x="0px" y="0px"
	 viewBox="0 0 500 500" style="enable-background:new 0 0 500 500;" xml:space="preserve">
<g id="Background_Simple">
	<g>
		<path style="fill:#92E3A9;" d="M454.763,327.31c-15.986,37.305-46.915,77.033-88.265,87.263
			c-62.478,15.464-72.2,64.77-182.32,54.916c-17.169-1.535-32.955-4.71-47.379-9.266c-7.754-2.448-15.116-5.307-22.078-8.529
			c-63.218-29.174-94.109-88.236-94.04-148.493c0.077-79.252,57.044-114.318,93.953-134.682
			c36.908-20.364,84.195-103.823,192.525-94.986c16.516,1.355,32.914,4.401,48.702,9.497c36.04,11.618,72.115,35.239,92.162,68.216
			c1.505,2.477,2.932,5.007,4.293,7.58C478.847,209.167,476.56,276.452,454.763,327.31z"/>
		<path style="opacity:0.7;fill:#FFFFFF;" d="M454.763,327.31c-15.986,37.305-46.915,77.033-88.265,87.263
			c-62.478,15.464-72.2,64.77-182.32,54.916c-17.169-1.535-32.955-4.71-47.379-9.266c-7.754-2.448-15.116-5.307-22.078-8.529
			c-63.218-29.174-94.109-88.236-94.04-148.493c0.077-79.252,57.044-114.318,93.953-134.682
			c36.908-20.364,84.195-103.823,192.525-94.986c16.516,1.355,32.914,4.401,48.702,9.497c36.04,11.618,72.115,35.239,92.162,68.216
			c1.505,2.477,2.932,5.007,4.293,7.58C478.847,209.167,476.56,276.452,454.763,327.31z"/>
	</g>
</g>
<g id="Floor">
	
		<line style="fill:none;stroke:#000000;stroke-linecap:round;stroke-linejoin:round;stroke-miterlimit:10;" x1="23.43" y1="440.241" x2="474.433" y2="440.241"/>
</g>
<g id="Plants">
	<g>
		<path style="fill:#263238;" d="M32.03,418c0.748,0.327,2.576,0.285,2.578,0.285c0.019-0.001-0.393-1.197-0.428-1.27
			c-0.401-0.84-1.67-2.225-2.703-2.086c-0.744,0.101-1.158,0.845-0.99,1.545C30.66,417.19,31.393,417.722,32.03,418z"/>
		<path style="fill:#263238;" d="M32.661,423.297c0.776,0.113,2.408-0.36,2.538-0.398c0.258,0.914,0.596,1.83,0.99,2.739
			c0.224,0.52,0.467,1.036,0.716,1.551c-0.149-0.218-0.284-0.412-0.305-0.437c-0.609-0.704-2.199-1.705-3.158-1.298
			c-0.691,0.293-0.893,1.12-0.546,1.752c0.354,0.645,1.202,0.963,1.89,1.063c0.698,0.102,2.097-0.274,2.466-0.378
			c0.098,0.197,0.193,0.394,0.292,0.59c0.473,0.941,0.948,1.878,1.387,2.812c0.155,0.329,0.295,0.658,0.437,0.988
			c-0.132-0.194-0.246-0.355-0.265-0.378c-0.609-0.704-2.199-1.705-3.158-1.298c-0.691,0.293-0.893,1.121-0.546,1.752
			c0.354,0.645,1.202,0.963,1.89,1.064c0.666,0.097,1.961-0.238,2.4-0.36c0.135,0.341,0.27,0.683,0.385,1.02
			c0.074,0.232,0.16,0.45,0.221,0.687c0.065,0.233,0.13,0.465,0.193,0.693c0.107,0.445,0.22,0.904,0.313,1.341
			c0.067,0.303,0.126,0.594,0.185,0.886c-0.15-0.329-0.458-0.967-0.489-1.018c-0.495-0.788-1.915-2.018-2.924-1.761
			c-0.727,0.185-1.053,0.972-0.805,1.649c0.253,0.691,1.042,1.134,1.707,1.338c0.732,0.224,2.352,0.019,2.554-0.008
			c0.097,0.484,0.187,0.956,0.264,1.402c0.058,0.331,0.111,0.648,0.16,0.953h0.649c-0.061-0.34-0.128-0.695-0.202-1.067
			c-0.097-0.492-0.209-1.015-0.331-1.552c0.122-0.048,0.813-0.328,1.425-0.67c0.533,0.578,1.9,1.253,2.077,1.339
			c-0.186,0.457-0.371,0.9-0.553,1.315c-0.096,0.22-0.188,0.428-0.281,0.634h0.686c0.055-0.13,0.108-0.258,0.164-0.394
			c0.191-0.464,0.386-0.963,0.581-1.477c0.196,0.041,1.8,0.367,2.547,0.198c0.678-0.153,1.499-0.537,1.802-1.207
			c0.297-0.656,0.031-1.465-0.681-1.704c-0.987-0.332-2.495,0.79-3.047,1.539c-0.033,0.044-0.333,0.563-0.517,0.893
			c0.078-0.211,0.157-0.414,0.235-0.632c0.158-0.43,0.302-0.863,0.46-1.329c0.068-0.228,0.137-0.458,0.206-0.69
			c0.074-0.229,0.122-0.48,0.185-0.722c0.134-0.564,0.243-1.142,0.34-1.727c0.377,0.137,1.721,0.605,2.417,0.556
			c0.693-0.049,1.563-0.303,1.964-0.92c0.393-0.603,0.253-1.444-0.414-1.788c-0.926-0.478-2.586,0.403-3.246,1.059
			c-0.041,0.041-0.461,0.565-0.687,0.857c0.055-0.352,0.112-0.703,0.156-1.061c0.128-1.033,0.226-2.083,0.328-3.129
			c0.031-0.321,0.066-0.64,0.1-0.959c0.133,0.05,1.719,0.641,2.499,0.586c0.693-0.048,1.563-0.303,1.964-0.92
			c0.393-0.603,0.253-1.443-0.414-1.787c-0.926-0.478-2.586,0.403-3.245,1.059c-0.05,0.049-0.653,0.805-0.797,1.004
			c0.074-0.704,0.155-1.404,0.263-2.092c0.147-0.949,0.344-1.872,0.601-2.751c0.062,0.024,1.714,0.647,2.513,0.591
			c0.693-0.049,1.563-0.303,1.964-0.92c0.393-0.603,0.253-1.443-0.414-1.788c-0.926-0.478-2.586,0.403-3.246,1.059
			c-0.052,0.051-0.701,0.864-0.808,1.02c0.015-0.052,0.026-0.108,0.042-0.16c0.286-0.936,0.681-1.807,1.09-2.604
			c0.237-0.464,0.489-0.894,0.744-1.306c0.296,0.148,1.655,0.808,2.38,0.837c0.694,0.028,1.587-0.13,2.053-0.699
			c0.457-0.557,0.41-1.407-0.215-1.822c-0.868-0.576-2.615,0.116-3.342,0.696c-0.04,0.031-0.406,0.397-0.669,0.666
			c0.118-0.185,0.236-0.377,0.353-0.552c0.436-0.656,0.875-1.23,1.269-1.736c0.226-0.285,0.436-0.539,0.635-0.775
			c0.366-0.006,1.84-0.051,2.485-0.354c0.629-0.296,1.348-0.846,1.5-1.566c0.149-0.705-0.285-1.438-1.031-1.518
			c-1.036-0.112-2.267,1.308-2.645,2.158c-0.033,0.074-0.412,1.281-0.393,1.281c0,0,0.018,0,0.022,0
			c-0.196,0.223-0.404,0.464-0.625,0.731c-0.405,0.498-0.858,1.064-1.31,1.713c-0.453,0.648-0.927,1.365-1.359,2.164
			c-0.433,0.801-0.848,1.666-1.161,2.613c-0.004,0.011-0.006,0.022-0.009,0.033c0.005-0.305-0.008-1.159-0.017-1.224
			c-0.12-0.923-0.893-2.635-1.918-2.825c-0.738-0.136-1.363,0.442-1.422,1.16c-0.06,0.733,0.472,1.467,0.99,1.93
			c0.584,0.522,2.207,1.028,2.336,1.068c-0.289,0.904-0.512,1.855-0.685,2.83c-0.1,0.557-0.182,1.122-0.258,1.689
			c-0.004-0.264-0.009-0.5-0.014-0.533c-0.12-0.923-0.893-2.635-1.918-2.824c-0.738-0.137-1.363,0.442-1.422,1.16
			c-0.06,0.733,0.471,1.467,0.99,1.93c0.526,0.47,1.9,0.929,2.266,1.045c-0.027,0.218-0.056,0.435-0.082,0.653
			c-0.125,1.046-0.245,2.09-0.394,3.11c-0.052,0.36-0.117,0.712-0.181,1.064c-0.004-0.234-0.009-0.432-0.013-0.462
			c-0.12-0.923-0.893-2.635-1.917-2.825c-0.738-0.136-1.364,0.442-1.422,1.16c-0.06,0.733,0.472,1.467,0.99,1.93
			c0.502,0.448,1.767,0.883,2.2,1.024c-0.076,0.359-0.152,0.719-0.242,1.064c-0.067,0.234-0.115,0.464-0.195,0.695
			c-0.075,0.23-0.148,0.459-0.221,0.685c-0.157,0.43-0.315,0.875-0.479,1.291c-0.111,0.29-0.223,0.564-0.334,0.841
			c0.056-0.357,0.152-1.059,0.153-1.119c0.014-0.618-0.205-1.623-0.642-2.329c0.003-0.091-0.002-0.182-0.017-0.273
			c-0.114-0.711-0.782-1.239-1.508-1.046c-1.007,0.268-1.645,2.035-1.693,2.964c-0.003,0.055,0.033,0.653,0.062,1.03
			c-0.051-0.219-0.097-0.432-0.152-0.657c-0.106-0.445-0.224-0.887-0.35-1.362c-0.069-0.227-0.138-0.457-0.208-0.689
			c-0.065-0.231-0.162-0.468-0.243-0.704c-0.199-0.544-0.427-1.087-0.669-1.627c0.39-0.094,1.769-0.445,2.323-0.87
			c0.551-0.423,1.136-1.115,1.131-1.851c-0.005-0.72-0.585-1.344-1.332-1.262c-1.036,0.112-1.935,1.763-2.123,2.674
			c-0.012,0.057-0.073,0.726-0.1,1.094c-0.148-0.324-0.294-0.648-0.455-0.971c-0.463-0.932-0.96-1.862-1.453-2.791
			c-0.151-0.285-0.298-0.57-0.446-0.855c0.139-0.032,1.787-0.414,2.408-0.89c0.551-0.423,1.136-1.115,1.131-1.851
			c-0.005-0.72-0.585-1.343-1.332-1.262c-1.036,0.112-1.935,1.763-2.123,2.674c-0.014,0.069-0.101,1.031-0.111,1.277
			c-0.326-0.628-0.646-1.257-0.935-1.89c-0.401-0.873-0.746-1.751-1.017-2.626c0.065-0.015,1.787-0.406,2.422-0.894
			c0.551-0.423,1.136-1.115,1.131-1.851c-0.005-0.72-0.585-1.343-1.332-1.262c-1.036,0.112-1.935,1.763-2.123,2.674
			c-0.015,0.072-0.108,1.107-0.111,1.296c-0.016-0.052-0.038-0.104-0.054-0.156c-0.278-0.939-0.429-1.883-0.527-2.773
			c-0.058-0.517-0.085-1.015-0.1-1.5c0.328-0.04,1.826-0.24,2.446-0.615c0.595-0.36,1.252-0.984,1.327-1.715
			c0.074-0.716-0.434-1.4-1.185-1.401c-1.042-0.002-2.117,1.539-2.404,2.424c-0.016,0.048-0.12,0.555-0.191,0.925
			c-0.003-0.219-0.011-0.445-0.01-0.655c0.001-0.788,0.051-1.509,0.1-2.148c0.031-0.363,0.066-0.69,0.103-0.996
			c0.301-0.207,1.506-1.058,1.877-1.666c0.362-0.593,0.658-1.45,0.388-2.134c-0.265-0.67-1.031-1.042-1.697-0.698
			c-0.926,0.478-1.169,2.342-1.016,3.259c0.014,0.079,0.363,1.296,0.379,1.285c0,0,0.015-0.01,0.018-0.013
			c-0.041,0.294-0.081,0.609-0.118,0.955c-0.064,0.639-0.129,1.361-0.148,2.152c-0.021,0.79-0.021,1.65,0.061,2.555
			c0.081,0.907,0.212,1.858,0.473,2.819c0.003,0.011,0.007,0.022,0.01,0.033c-0.164-0.258-0.646-0.962-0.69-1.012
			c-0.609-0.704-2.198-1.705-3.157-1.298c-0.691,0.293-0.893,1.121-0.546,1.752C31.126,422.878,31.974,423.197,32.661,423.297z"/>
		<path style="fill:#263238;" d="M50.528,418.402c0.016,0.01,0.333-1.216,0.344-1.295c0.128-0.921-0.166-2.777-1.104-3.231
			c-0.676-0.327-1.431,0.066-1.678,0.743c-0.252,0.691,0.067,1.539,0.445,2.122C48.979,417.427,50.527,418.401,50.528,418.402z"/>
	</g>
	<g>
		<path style="fill:#263238;" d="M447.418,426.54c0.461,0.201,1.587,0.176,1.588,0.176c0.012,0-0.242-0.737-0.264-0.782
			c-0.247-0.517-1.029-1.371-1.665-1.285c-0.458,0.062-0.713,0.521-0.61,0.952C446.574,426.042,447.026,426.369,447.418,426.54z"/>
		<path style="fill:#263238;" d="M447.807,429.804c0.478,0.07,1.483-0.222,1.563-0.245c0.159,0.563,0.367,1.127,0.61,1.687
			c0.138,0.32,0.288,0.638,0.441,0.956c-0.092-0.134-0.175-0.254-0.188-0.269c-0.375-0.434-1.354-1.05-1.945-0.799
			c-0.426,0.181-0.55,0.69-0.337,1.079c0.218,0.397,0.741,0.593,1.164,0.655c0.43,0.063,1.292-0.169,1.519-0.233
			c0.06,0.121,0.119,0.243,0.18,0.363c0.291,0.58,0.584,1.157,0.854,1.732c0.095,0.203,0.182,0.406,0.269,0.608
			c-0.082-0.119-0.151-0.219-0.164-0.233c-0.375-0.433-1.354-1.051-1.945-0.799c-0.426,0.181-0.55,0.69-0.337,1.079
			c0.218,0.397,0.741,0.593,1.164,0.655c0.41,0.06,1.208-0.147,1.478-0.222c0.083,0.21,0.167,0.421,0.237,0.629
			c0.045,0.143,0.099,0.277,0.136,0.423c0.04,0.144,0.08,0.286,0.119,0.427c0.066,0.274,0.135,0.557,0.193,0.826
			c0.041,0.187,0.077,0.366,0.114,0.546c-0.092-0.203-0.282-0.596-0.301-0.627c-0.305-0.485-1.18-1.243-1.802-1.085
			c-0.448,0.114-0.648,0.599-0.496,1.016c0.156,0.426,0.642,0.699,1.052,0.824c0.451,0.138,1.448,0.012,1.573-0.005
			c0.06,0.298,0.115,0.589,0.163,0.864c0.036,0.204,0.069,0.399,0.099,0.587h0.4c-0.038-0.209-0.079-0.428-0.124-0.657
			c-0.059-0.303-0.129-0.625-0.204-0.956c0.075-0.03,0.501-0.202,0.878-0.413c0.329,0.356,1.17,0.772,1.279,0.825
			c-0.115,0.282-0.229,0.555-0.341,0.81c-0.059,0.136-0.116,0.263-0.173,0.391h0.423c0.034-0.08,0.067-0.159,0.101-0.243
			c0.118-0.285,0.237-0.593,0.358-0.91c0.121,0.025,1.108,0.226,1.569,0.122c0.418-0.094,0.923-0.331,1.11-0.743
			c0.183-0.404,0.019-0.902-0.419-1.05c-0.608-0.204-1.537,0.487-1.877,0.948c-0.02,0.027-0.205,0.347-0.318,0.55
			c0.048-0.13,0.097-0.255,0.145-0.389c0.097-0.265,0.186-0.532,0.283-0.819c0.042-0.14,0.084-0.282,0.127-0.425
			c0.045-0.141,0.076-0.296,0.114-0.444c0.083-0.348,0.15-0.703,0.209-1.064c0.232,0.084,1.06,0.372,1.489,0.342
			c0.427-0.03,0.963-0.187,1.21-0.566c0.242-0.372,0.156-0.889-0.255-1.101c-0.57-0.294-1.593,0.248-1.999,0.652
			c-0.025,0.025-0.284,0.348-0.423,0.528c0.034-0.217,0.069-0.433,0.096-0.654c0.079-0.636,0.139-1.283,0.202-1.928
			c0.019-0.198,0.04-0.394,0.061-0.591c0.082,0.031,1.059,0.395,1.54,0.361c0.427-0.03,0.963-0.187,1.21-0.566
			c0.242-0.372,0.156-0.889-0.255-1.101c-0.57-0.294-1.593,0.248-1.999,0.652c-0.031,0.03-0.402,0.496-0.491,0.618
			c0.046-0.434,0.095-0.865,0.162-1.289c0.091-0.584,0.212-1.153,0.37-1.695c0.038,0.015,1.056,0.399,1.548,0.364
			c0.427-0.03,0.963-0.187,1.21-0.567c0.242-0.372,0.156-0.889-0.255-1.101c-0.57-0.294-1.593,0.248-1.999,0.652
			c-0.032,0.032-0.432,0.532-0.498,0.628c0.01-0.032,0.016-0.067,0.026-0.099c0.176-0.576,0.419-1.113,0.671-1.604
			c0.146-0.286,0.302-0.55,0.459-0.805c0.182,0.091,1.02,0.498,1.466,0.515c0.428,0.017,0.977-0.08,1.265-0.43
			c0.281-0.343,0.252-0.867-0.133-1.122c-0.535-0.355-1.611,0.072-2.059,0.429c-0.024,0.019-0.25,0.244-0.412,0.41
			c0.073-0.114,0.145-0.232,0.217-0.34c0.268-0.404,0.539-0.758,0.782-1.069c0.139-0.176,0.269-0.332,0.391-0.477
			c0.225-0.004,1.133-0.031,1.531-0.218c0.387-0.182,0.83-0.521,0.924-0.965c0.092-0.434-0.175-0.886-0.635-0.935
			c-0.638-0.069-1.397,0.806-1.63,1.329c-0.02,0.045-0.254,0.789-0.242,0.789c0,0,0.011,0,0.014,0
			c-0.121,0.137-0.249,0.286-0.385,0.451c-0.25,0.307-0.529,0.655-0.807,1.055c-0.279,0.399-0.571,0.84-0.837,1.333
			c-0.267,0.494-0.522,1.026-0.715,1.609c-0.002,0.007-0.004,0.014-0.006,0.02c0.003-0.188-0.005-0.714-0.01-0.754
			c-0.074-0.568-0.55-1.623-1.181-1.74c-0.455-0.084-0.84,0.272-0.876,0.714c-0.037,0.452,0.29,0.904,0.61,1.189
			c0.36,0.322,1.359,0.633,1.439,0.658c-0.178,0.557-0.316,1.143-0.422,1.743c-0.061,0.343-0.112,0.691-0.159,1.04
			c-0.002-0.163-0.006-0.308-0.008-0.328c-0.074-0.568-0.55-1.623-1.181-1.74c-0.455-0.084-0.84,0.272-0.876,0.714
			c-0.037,0.452,0.29,0.904,0.61,1.189c0.324,0.289,1.171,0.572,1.396,0.644c-0.017,0.134-0.034,0.268-0.051,0.402
			c-0.077,0.644-0.151,1.287-0.243,1.916c-0.032,0.221-0.072,0.438-0.111,0.656c-0.002-0.144-0.005-0.266-0.008-0.284
			c-0.074-0.568-0.55-1.623-1.181-1.74c-0.455-0.084-0.84,0.272-0.876,0.714c-0.037,0.451,0.29,0.904,0.61,1.189
			c0.309,0.276,1.088,0.544,1.355,0.631c-0.047,0.221-0.093,0.443-0.149,0.655c-0.041,0.144-0.071,0.286-0.12,0.428
			c-0.046,0.142-0.091,0.283-0.136,0.422c-0.096,0.265-0.194,0.539-0.295,0.795c-0.069,0.179-0.137,0.348-0.206,0.518
			c0.035-0.22,0.094-0.652,0.094-0.689c0.009-0.381-0.126-1-0.396-1.435c0.002-0.056-0.002-0.112-0.01-0.168
			c-0.07-0.438-0.482-0.763-0.929-0.644c-0.62,0.165-1.013,1.254-1.043,1.826c-0.002,0.034,0.02,0.402,0.038,0.634
			c-0.031-0.135-0.06-0.266-0.094-0.405c-0.065-0.274-0.138-0.546-0.215-0.839c-0.042-0.14-0.085-0.281-0.128-0.424
			c-0.04-0.142-0.1-0.288-0.15-0.434c-0.123-0.335-0.263-0.669-0.412-1.002c0.24-0.058,1.09-0.274,1.431-0.536
			c0.34-0.261,0.7-0.687,0.697-1.14c-0.003-0.444-0.361-0.828-0.82-0.778c-0.638,0.069-1.192,1.086-1.308,1.647
			c-0.007,0.035-0.045,0.447-0.061,0.674c-0.091-0.2-0.181-0.399-0.28-0.598c-0.285-0.574-0.592-1.147-0.895-1.719
			c-0.093-0.175-0.183-0.351-0.275-0.527c0.086-0.02,1.101-0.255,1.483-0.548c0.34-0.261,0.7-0.687,0.697-1.14
			c-0.003-0.444-0.361-0.828-0.82-0.778c-0.638,0.069-1.192,1.086-1.308,1.647c-0.009,0.042-0.062,0.635-0.068,0.787
			c-0.201-0.387-0.398-0.774-0.576-1.164c-0.247-0.538-0.459-1.078-0.626-1.618c0.04-0.009,1.101-0.25,1.492-0.55
			c0.34-0.261,0.7-0.687,0.697-1.14c-0.003-0.444-0.361-0.827-0.82-0.778c-0.638,0.069-1.192,1.086-1.308,1.647
			c-0.009,0.044-0.066,0.682-0.068,0.798c-0.01-0.032-0.024-0.064-0.033-0.096c-0.171-0.578-0.264-1.16-0.325-1.708
			c-0.036-0.319-0.052-0.625-0.061-0.924c0.202-0.025,1.125-0.147,1.507-0.379c0.366-0.222,0.771-0.606,0.818-1.057
			c0.046-0.441-0.268-0.862-0.73-0.863c-0.642-0.001-1.304,0.948-1.481,1.493c-0.01,0.03-0.074,0.342-0.118,0.57
			c-0.002-0.135-0.007-0.274-0.006-0.403c0.001-0.485,0.032-0.93,0.062-1.323c0.019-0.224,0.041-0.425,0.063-0.614
			c0.186-0.128,0.928-0.652,1.156-1.026c0.223-0.366,0.405-0.893,0.239-1.314c-0.163-0.413-0.635-0.642-1.046-0.43
			c-0.57,0.295-0.72,1.443-0.626,2.008c0.008,0.049,0.224,0.798,0.233,0.792c0,0,0.009-0.006,0.011-0.008
			c-0.025,0.181-0.05,0.375-0.073,0.588c-0.039,0.393-0.079,0.838-0.091,1.326c-0.013,0.487-0.013,1.016,0.038,1.574
			c0.05,0.559,0.13,1.144,0.292,1.737c0.002,0.007,0.005,0.013,0.007,0.02c-0.101-0.159-0.398-0.593-0.425-0.624
			c-0.375-0.433-1.354-1.05-1.945-0.8c-0.426,0.181-0.55,0.69-0.337,1.079C446.861,429.546,447.384,429.742,447.807,429.804z"/>
		<path style="fill:#263238;" d="M458.813,426.788c0.01,0.006,0.205-0.749,0.212-0.798c0.079-0.568-0.102-1.711-0.68-1.99
			c-0.416-0.201-0.882,0.041-1.033,0.458c-0.155,0.426,0.041,0.948,0.274,1.307C457.859,426.188,458.812,426.788,458.813,426.788z"
			/>
	</g>
	<g>
		<path style="fill:#263238;" d="M98.718,426.54c0.461,0.201,1.587,0.176,1.588,0.176c0.012,0-0.242-0.737-0.263-0.782
			c-0.247-0.517-1.029-1.371-1.665-1.285c-0.458,0.062-0.713,0.521-0.609,0.952C97.874,426.042,98.326,426.369,98.718,426.54z"/>
		<path style="fill:#263238;" d="M99.107,429.804c0.478,0.07,1.483-0.222,1.563-0.245c0.159,0.563,0.367,1.127,0.61,1.687
			c0.138,0.32,0.288,0.638,0.441,0.956c-0.092-0.134-0.175-0.254-0.188-0.269c-0.375-0.434-1.354-1.05-1.945-0.799
			c-0.426,0.181-0.55,0.69-0.337,1.079c0.218,0.397,0.741,0.593,1.164,0.655c0.43,0.063,1.292-0.169,1.519-0.233
			c0.06,0.121,0.119,0.243,0.18,0.363c0.291,0.58,0.584,1.157,0.854,1.732c0.095,0.203,0.182,0.406,0.269,0.608
			c-0.081-0.119-0.151-0.219-0.163-0.233c-0.375-0.433-1.354-1.051-1.945-0.799c-0.426,0.181-0.55,0.69-0.337,1.079
			c0.218,0.397,0.741,0.593,1.164,0.655c0.41,0.06,1.208-0.147,1.478-0.222c0.083,0.21,0.166,0.421,0.237,0.629
			c0.045,0.143,0.099,0.277,0.136,0.423c0.04,0.144,0.08,0.286,0.119,0.427c0.066,0.274,0.135,0.557,0.193,0.826
			c0.041,0.187,0.077,0.366,0.114,0.546c-0.092-0.203-0.282-0.596-0.301-0.627c-0.305-0.485-1.18-1.243-1.801-1.085
			c-0.448,0.114-0.648,0.599-0.496,1.016c0.156,0.426,0.642,0.699,1.051,0.824c0.451,0.138,1.449,0.012,1.573-0.005
			c0.06,0.298,0.115,0.589,0.163,0.864c0.036,0.204,0.069,0.399,0.099,0.587h0.4c-0.038-0.209-0.079-0.428-0.124-0.657
			c-0.059-0.303-0.129-0.625-0.204-0.956c0.075-0.03,0.501-0.202,0.878-0.413c0.328,0.356,1.17,0.772,1.279,0.825
			c-0.115,0.282-0.229,0.555-0.341,0.81c-0.059,0.136-0.116,0.263-0.173,0.391h0.423c0.034-0.08,0.067-0.159,0.101-0.243
			c0.118-0.285,0.238-0.593,0.358-0.91c0.121,0.025,1.109,0.226,1.569,0.122c0.417-0.094,0.923-0.331,1.11-0.743
			c0.183-0.404,0.019-0.902-0.419-1.05c-0.608-0.204-1.537,0.487-1.877,0.948c-0.02,0.027-0.205,0.347-0.318,0.55
			c0.048-0.13,0.097-0.255,0.145-0.389c0.097-0.265,0.186-0.532,0.283-0.819c0.042-0.14,0.084-0.282,0.127-0.425
			c0.045-0.141,0.076-0.296,0.114-0.444c0.083-0.348,0.15-0.703,0.209-1.064c0.232,0.084,1.06,0.372,1.489,0.342
			c0.427-0.03,0.963-0.187,1.21-0.566c0.242-0.372,0.156-0.889-0.255-1.101c-0.571-0.294-1.593,0.248-1.999,0.652
			c-0.025,0.025-0.284,0.348-0.423,0.528c0.034-0.217,0.069-0.433,0.096-0.654c0.079-0.636,0.139-1.283,0.202-1.928
			c0.019-0.198,0.041-0.394,0.061-0.591c0.082,0.031,1.059,0.395,1.539,0.361c0.427-0.03,0.963-0.187,1.21-0.566
			c0.242-0.372,0.156-0.889-0.255-1.101c-0.57-0.294-1.593,0.248-1.999,0.652c-0.031,0.03-0.402,0.496-0.491,0.618
			c0.046-0.434,0.095-0.865,0.162-1.289c0.09-0.584,0.212-1.153,0.37-1.695c0.038,0.015,1.056,0.399,1.548,0.364
			c0.427-0.03,0.963-0.187,1.21-0.567c0.242-0.372,0.156-0.889-0.255-1.101c-0.571-0.294-1.593,0.248-1.999,0.652
			c-0.032,0.032-0.432,0.532-0.498,0.628c0.01-0.032,0.016-0.067,0.026-0.099c0.176-0.576,0.419-1.113,0.671-1.604
			c0.146-0.286,0.302-0.55,0.459-0.805c0.182,0.091,1.02,0.498,1.466,0.515c0.428,0.017,0.977-0.08,1.265-0.43
			c0.282-0.343,0.253-0.867-0.133-1.122c-0.535-0.355-1.611,0.072-2.059,0.429c-0.024,0.019-0.25,0.244-0.412,0.41
			c0.073-0.114,0.145-0.232,0.217-0.34c0.269-0.404,0.539-0.758,0.782-1.069c0.139-0.176,0.268-0.332,0.391-0.477
			c0.225-0.004,1.133-0.031,1.531-0.218c0.387-0.182,0.831-0.521,0.924-0.965c0.092-0.434-0.175-0.886-0.635-0.935
			c-0.638-0.069-1.396,0.806-1.63,1.329c-0.02,0.045-0.254,0.789-0.242,0.789c0,0,0.011,0,0.014,0
			c-0.121,0.137-0.249,0.286-0.385,0.451c-0.25,0.307-0.529,0.655-0.807,1.055c-0.279,0.399-0.571,0.84-0.837,1.333
			c-0.267,0.494-0.522,1.026-0.715,1.609c-0.002,0.007-0.004,0.014-0.006,0.02c0.003-0.188-0.005-0.714-0.01-0.754
			c-0.074-0.568-0.55-1.623-1.181-1.74c-0.455-0.084-0.84,0.272-0.876,0.714c-0.037,0.452,0.29,0.904,0.61,1.189
			c0.36,0.322,1.359,0.633,1.439,0.658c-0.178,0.557-0.316,1.143-0.422,1.743c-0.061,0.343-0.112,0.691-0.159,1.04
			c-0.002-0.163-0.006-0.308-0.008-0.328c-0.074-0.568-0.55-1.623-1.181-1.74c-0.455-0.084-0.84,0.272-0.876,0.714
			c-0.037,0.452,0.29,0.904,0.61,1.189c0.324,0.289,1.171,0.572,1.396,0.644c-0.017,0.134-0.035,0.268-0.05,0.402
			c-0.077,0.644-0.151,1.287-0.243,1.916c-0.032,0.221-0.072,0.438-0.111,0.656c-0.002-0.144-0.005-0.266-0.008-0.284
			c-0.074-0.568-0.55-1.623-1.181-1.74c-0.455-0.084-0.84,0.272-0.876,0.714c-0.037,0.451,0.291,0.904,0.61,1.189
			c0.309,0.276,1.088,0.544,1.355,0.631c-0.047,0.221-0.093,0.443-0.149,0.655c-0.041,0.144-0.071,0.286-0.12,0.428
			c-0.046,0.142-0.091,0.283-0.136,0.422c-0.097,0.265-0.194,0.539-0.295,0.795c-0.069,0.179-0.137,0.348-0.206,0.518
			c0.035-0.22,0.094-0.652,0.094-0.689c0.009-0.381-0.126-1-0.396-1.435c0.002-0.056-0.002-0.112-0.01-0.168
			c-0.07-0.438-0.482-0.763-0.929-0.644c-0.62,0.165-1.014,1.254-1.043,1.826c-0.002,0.034,0.02,0.402,0.038,0.634
			c-0.031-0.135-0.06-0.266-0.094-0.405c-0.065-0.274-0.138-0.546-0.215-0.839c-0.042-0.14-0.085-0.281-0.128-0.424
			c-0.04-0.142-0.1-0.288-0.15-0.434c-0.123-0.335-0.263-0.669-0.412-1.002c0.24-0.058,1.09-0.274,1.431-0.536
			c0.34-0.261,0.7-0.687,0.697-1.14c-0.003-0.444-0.361-0.828-0.82-0.778c-0.638,0.069-1.192,1.086-1.308,1.647
			c-0.007,0.035-0.045,0.447-0.061,0.674c-0.091-0.2-0.181-0.399-0.28-0.598c-0.285-0.574-0.591-1.147-0.895-1.719
			c-0.093-0.175-0.184-0.351-0.275-0.527c0.086-0.02,1.101-0.255,1.483-0.548c0.34-0.261,0.7-0.687,0.697-1.14
			c-0.003-0.444-0.361-0.828-0.82-0.778c-0.638,0.069-1.192,1.086-1.308,1.647c-0.009,0.042-0.062,0.635-0.068,0.787
			c-0.201-0.387-0.398-0.774-0.576-1.164c-0.247-0.538-0.459-1.078-0.626-1.618c0.04-0.009,1.101-0.25,1.492-0.55
			c0.34-0.261,0.7-0.687,0.696-1.14c-0.003-0.444-0.361-0.827-0.82-0.778c-0.638,0.069-1.192,1.086-1.308,1.647
			c-0.009,0.044-0.066,0.682-0.068,0.798c-0.01-0.032-0.024-0.064-0.033-0.096c-0.171-0.578-0.264-1.16-0.325-1.708
			c-0.036-0.319-0.052-0.625-0.061-0.924c0.202-0.025,1.125-0.147,1.507-0.379c0.366-0.222,0.771-0.606,0.818-1.057
			c0.046-0.441-0.268-0.862-0.73-0.863c-0.642-0.001-1.304,0.948-1.481,1.493c-0.01,0.03-0.074,0.342-0.118,0.57
			c-0.002-0.135-0.007-0.274-0.006-0.403c0.001-0.485,0.032-0.93,0.062-1.323c0.019-0.224,0.041-0.425,0.063-0.614
			c0.186-0.128,0.928-0.652,1.156-1.026c0.223-0.366,0.405-0.893,0.239-1.314c-0.163-0.413-0.635-0.642-1.045-0.43
			c-0.57,0.295-0.72,1.443-0.626,2.008c0.008,0.049,0.224,0.798,0.233,0.792c0,0,0.009-0.006,0.011-0.008
			c-0.025,0.181-0.05,0.375-0.073,0.588c-0.039,0.393-0.08,0.838-0.091,1.326c-0.013,0.487-0.013,1.016,0.037,1.574
			c0.05,0.559,0.13,1.144,0.292,1.737c0.002,0.007,0.005,0.013,0.007,0.02c-0.101-0.159-0.398-0.593-0.425-0.624
			c-0.375-0.433-1.354-1.05-1.945-0.8c-0.426,0.181-0.55,0.69-0.337,1.079C98.161,429.546,98.684,429.742,99.107,429.804z"/>
		<path style="fill:#263238;" d="M110.113,426.788c0.01,0.006,0.205-0.749,0.212-0.798c0.079-0.568-0.102-1.711-0.68-1.99
			c-0.416-0.201-0.882,0.041-1.033,0.458c-0.155,0.426,0.041,0.948,0.274,1.307C109.159,426.188,110.112,426.788,110.113,426.788z"
			/>
	</g>
	<g>
		<path style="fill:#263238;" d="M400.922,419.436c0.699,0.305,2.41,0.267,2.411,0.267c0.018,0-0.368-1.12-0.4-1.188
			c-0.375-0.785-1.562-2.082-2.528-1.951c-0.696,0.094-1.083,0.79-0.926,1.445C399.64,418.679,400.326,419.176,400.922,419.436z"/>
		<path style="fill:#263238;" d="M401.513,424.391c0.725,0.106,2.252-0.337,2.373-0.373c0.241,0.855,0.558,1.712,0.926,2.562
			c0.21,0.486,0.437,0.969,0.67,1.451c-0.139-0.204-0.265-0.385-0.285-0.409c-0.57-0.658-2.057-1.595-2.954-1.214
			c-0.646,0.274-0.836,1.048-0.511,1.638c0.331,0.603,1.125,0.901,1.768,0.995c0.653,0.095,1.962-0.256,2.307-0.354
			c0.091,0.184,0.181,0.368,0.273,0.552c0.442,0.88,0.887,1.757,1.297,2.63c0.145,0.308,0.276,0.616,0.408,0.924
			c-0.124-0.181-0.23-0.333-0.248-0.354c-0.569-0.658-2.057-1.595-2.954-1.214c-0.646,0.274-0.836,1.048-0.511,1.638
			c0.332,0.603,1.125,0.901,1.768,0.995c0.623,0.091,1.834-0.223,2.245-0.337c0.126,0.319,0.253,0.639,0.361,0.954
			c0.069,0.217,0.15,0.421,0.207,0.643c0.061,0.218,0.121,0.434,0.181,0.649c0.1,0.416,0.206,0.845,0.293,1.254
			c0.063,0.284,0.117,0.555,0.173,0.829c-0.141-0.308-0.428-0.905-0.458-0.952c-0.463-0.737-1.791-1.888-2.736-1.647
			c-0.68,0.173-0.985,0.909-0.753,1.542c0.236,0.646,0.975,1.061,1.597,1.251c0.685,0.209,2.2,0.018,2.389-0.007
			c0.091,0.453,0.175,0.894,0.247,1.312c0.055,0.309,0.104,0.606,0.15,0.892h0.607c-0.057-0.318-0.12-0.65-0.189-0.998
			c-0.09-0.46-0.196-0.95-0.309-1.452c0.114-0.045,0.76-0.307,1.333-0.627c0.499,0.54,1.777,1.172,1.943,1.253
			c-0.174,0.428-0.347,0.842-0.517,1.23c-0.089,0.206-0.176,0.4-0.263,0.593h0.642c0.051-0.122,0.101-0.241,0.153-0.368
			c0.178-0.434,0.361-0.901,0.543-1.382c0.183,0.038,1.683,0.343,2.382,0.185c0.634-0.143,1.402-0.502,1.686-1.129
			c0.278-0.613,0.029-1.37-0.637-1.594c-0.924-0.31-2.334,0.739-2.851,1.439c-0.031,0.041-0.311,0.526-0.483,0.836
			c0.073-0.197,0.147-0.388,0.22-0.591c0.148-0.402,0.283-0.807,0.43-1.243c0.064-0.213,0.128-0.428,0.193-0.645
			c0.069-0.214,0.115-0.449,0.174-0.675c0.126-0.528,0.227-1.068,0.318-1.615c0.352,0.128,1.61,0.566,2.261,0.52
			c0.648-0.046,1.462-0.284,1.837-0.86c0.368-0.564,0.236-1.35-0.388-1.672c-0.866-0.447-2.419,0.377-3.036,0.991
			c-0.039,0.038-0.432,0.529-0.642,0.802c0.052-0.329,0.105-0.658,0.146-0.992c0.12-0.966,0.211-1.948,0.307-2.927
			c0.029-0.3,0.062-0.598,0.093-0.897c0.125,0.047,1.608,0.599,2.338,0.548c0.648-0.045,1.462-0.284,1.837-0.86
			c0.368-0.564,0.237-1.35-0.387-1.672c-0.866-0.447-2.419,0.377-3.036,0.991c-0.047,0.046-0.611,0.753-0.746,0.939
			c0.069-0.659,0.145-1.314,0.246-1.957c0.137-0.888,0.322-1.751,0.562-2.574c0.058,0.022,1.604,0.605,2.351,0.553
			c0.649-0.046,1.462-0.284,1.837-0.86c0.368-0.564,0.237-1.35-0.388-1.672c-0.866-0.447-2.419,0.377-3.036,0.991
			c-0.048,0.048-0.655,0.808-0.756,0.954c0.015-0.049,0.024-0.101,0.039-0.15c0.268-0.875,0.637-1.69,1.02-2.436
			c0.222-0.434,0.458-0.836,0.696-1.222c0.277,0.138,1.548,0.756,2.226,0.783c0.65,0.026,1.484-0.121,1.921-0.653
			c0.427-0.521,0.383-1.316-0.202-1.705c-0.812-0.539-2.446,0.109-3.126,0.651c-0.037,0.029-0.38,0.371-0.626,0.623
			c0.11-0.173,0.221-0.353,0.33-0.516c0.408-0.614,0.819-1.151,1.187-1.624c0.211-0.267,0.408-0.504,0.594-0.725
			c0.342-0.006,1.721-0.048,2.324-0.331c0.588-0.276,1.261-0.792,1.403-1.465c0.139-0.659-0.266-1.345-0.964-1.42
			c-0.969-0.105-2.121,1.223-2.474,2.019c-0.031,0.069-0.386,1.198-0.368,1.198c0,0,0.017,0,0.021,0
			c-0.184,0.208-0.378,0.434-0.585,0.684c-0.379,0.466-0.803,0.995-1.226,1.603c-0.424,0.606-0.867,1.276-1.271,2.025
			c-0.405,0.749-0.793,1.559-1.086,2.444c-0.003,0.01-0.005,0.021-0.009,0.031c0.005-0.286-0.008-1.084-0.016-1.145
			c-0.112-0.863-0.835-2.465-1.794-2.642c-0.69-0.128-1.275,0.413-1.33,1.085c-0.056,0.686,0.441,1.372,0.926,1.805
			c0.547,0.488,2.064,0.961,2.185,0.999c-0.271,0.846-0.479,1.735-0.641,2.647c-0.093,0.522-0.171,1.05-0.242,1.58
			c-0.004-0.247-0.009-0.468-0.013-0.499c-0.112-0.863-0.835-2.465-1.794-2.642c-0.69-0.128-1.275,0.413-1.33,1.085
			c-0.056,0.686,0.441,1.372,0.926,1.805c0.492,0.439,1.778,0.869,2.119,0.978c-0.025,0.204-0.052,0.407-0.077,0.611
			c-0.117,0.978-0.229,1.955-0.369,2.909c-0.049,0.336-0.11,0.666-0.169,0.996c-0.003-0.219-0.008-0.404-0.012-0.432
			c-0.112-0.863-0.835-2.465-1.793-2.642c-0.691-0.127-1.276,0.413-1.331,1.085c-0.056,0.685,0.441,1.372,0.926,1.805
			c0.469,0.419,1.653,0.826,2.058,0.958c-0.071,0.336-0.142,0.673-0.226,0.995c-0.062,0.219-0.107,0.434-0.182,0.65
			c-0.07,0.215-0.138,0.429-0.207,0.641c-0.147,0.402-0.295,0.819-0.448,1.207c-0.104,0.272-0.209,0.528-0.313,0.787
			c0.053-0.334,0.142-0.991,0.143-1.046c0.013-0.578-0.192-1.518-0.601-2.179c0.003-0.085-0.002-0.17-0.016-0.255
			c-0.107-0.665-0.732-1.159-1.41-0.978c-0.942,0.251-1.539,1.904-1.584,2.773c-0.003,0.051,0.031,0.611,0.058,0.963
			c-0.048-0.205-0.091-0.404-0.143-0.615c-0.099-0.417-0.21-0.829-0.327-1.274c-0.064-0.213-0.129-0.427-0.195-0.645
			c-0.06-0.216-0.152-0.437-0.228-0.659c-0.186-0.509-0.4-1.017-0.626-1.522c0.365-0.087,1.655-0.416,2.173-0.814
			c0.516-0.396,1.063-1.043,1.058-1.731c-0.005-0.674-0.548-1.257-1.246-1.181c-0.969,0.105-1.81,1.649-1.986,2.501
			c-0.011,0.053-0.068,0.679-0.093,1.023c-0.138-0.303-0.275-0.606-0.425-0.909c-0.433-0.872-0.898-1.741-1.359-2.611
			c-0.141-0.266-0.279-0.533-0.417-0.8c0.13-0.03,1.672-0.388,2.252-0.833c0.516-0.396,1.063-1.043,1.058-1.731
			c-0.005-0.674-0.548-1.257-1.246-1.181c-0.969,0.105-1.81,1.649-1.986,2.501c-0.013,0.064-0.094,0.965-0.104,1.195
			c-0.305-0.587-0.604-1.176-0.875-1.768c-0.375-0.816-0.698-1.638-0.951-2.457c0.061-0.014,1.671-0.38,2.266-0.836
			c0.516-0.396,1.063-1.043,1.058-1.731c-0.005-0.674-0.547-1.257-1.246-1.181c-0.969,0.105-1.81,1.649-1.985,2.501
			c-0.014,0.067-0.101,1.036-0.104,1.213c-0.015-0.049-0.036-0.097-0.05-0.146c-0.26-0.878-0.401-1.761-0.493-2.594
			c-0.054-0.484-0.079-0.95-0.093-1.403c0.307-0.038,1.708-0.224,2.288-0.575c0.556-0.337,1.171-0.92,1.242-1.604
			c0.069-0.67-0.406-1.309-1.108-1.31c-0.975-0.002-1.98,1.44-2.248,2.268c-0.015,0.045-0.112,0.519-0.178,0.865
			c-0.003-0.205-0.01-0.416-0.01-0.612c0.001-0.737,0.048-1.412,0.094-2.009c0.029-0.34,0.062-0.646,0.096-0.932
			c0.282-0.194,1.409-0.99,1.756-1.558c0.338-0.555,0.615-1.356,0.362-1.996c-0.247-0.627-0.964-0.975-1.587-0.652
			c-0.866,0.448-1.094,2.19-0.951,3.049c0.013,0.074,0.34,1.212,0.354,1.202c0,0,0.014-0.009,0.017-0.012
			c-0.038,0.275-0.076,0.57-0.11,0.893c-0.059,0.598-0.121,1.273-0.138,2.013c-0.019,0.739-0.019,1.543,0.057,2.39
			c0.076,0.849,0.198,1.738,0.443,2.637c0.003,0.01,0.007,0.02,0.01,0.031c-0.153-0.241-0.605-0.9-0.645-0.947
			c-0.569-0.658-2.056-1.595-2.954-1.214c-0.646,0.275-0.836,1.048-0.511,1.639C400.076,424,400.869,424.298,401.513,424.391z"/>
		<path style="fill:#263238;" d="M418.225,419.813c0.015,0.009,0.311-1.137,0.322-1.211c0.12-0.862-0.155-2.598-1.032-3.022
			c-0.632-0.306-1.339,0.062-1.569,0.695c-0.235,0.646,0.063,1.44,0.416,1.985C416.776,418.9,418.224,419.812,418.225,419.813z"/>
	</g>
</g>
<g id="Clouds">
	<g style="opacity:0.3;">
		<path style="fill:none;stroke:#000000;stroke-linecap:round;stroke-miterlimit:10;" d="M380.72,78.484c0,0-2.422-6.46-8.075-7.671
			c-5.652-1.211-7.873,2.221-9.084,5.047c-1.211,2.826-4.845,0.605-7.873,0.202c-3.028-0.404-4.643,2.624-5.249,4.845
			c-0.606,2.22-4.441-1.009-7.873,1.009c-3.432,2.019-4.037,4.643-4.845,5.248c-0.807,0.606-3.028-0.404-4.239,1.211
			c-1.211,1.615-1.211,1.615-1.211,1.615h63.184c0,0,2.019-4.643-1.817-8.075C389.803,78.484,383.142,83.732,380.72,78.484z"/>
		<path style="fill:none;stroke:#000000;stroke-linecap:round;stroke-miterlimit:10;" d="M88.252,81.557
			c0,0-3.264-8.703-10.879-10.335c-7.615-1.632-10.606,2.992-12.238,6.799c-1.632,3.807-6.527,0.816-10.607,0.272
			s-6.255,3.535-7.071,6.527c-0.816,2.992-5.983-1.36-10.606,1.36c-4.623,2.72-5.439,6.255-6.527,7.071
			c-1.088,0.816-4.08-0.544-5.711,1.632c-1.632,2.176-1.632,2.176-1.632,2.176h85.124c0,0,2.72-6.255-2.448-10.879
			C100.49,81.557,91.515,88.628,88.252,81.557z"/>
		<path style="fill:none;stroke:#000000;stroke-linecap:round;stroke-miterlimit:10;" d="M451.464,39.946
			c0,0-4.76-12.693-15.866-15.073c-11.106-2.38-15.469,4.363-17.849,9.916c-2.38,5.553-9.52,1.19-15.469,0.397
			c-5.95-0.793-9.123,5.156-10.313,9.52c-1.19,4.363-8.726-1.983-15.469,1.983c-6.743,3.966-7.933,9.123-9.52,10.313
			c-1.586,1.19-5.95-0.793-8.33,2.38c-2.38,3.173-2.38,3.173-2.38,3.173h124.151c0,0,3.966-9.123-3.57-15.866
			C469.313,39.946,456.224,50.259,451.464,39.946z"/>
	</g>
</g>
<g id="Buildings_2">
	<g style="opacity:0.3;">
		<polyline style="fill:none;stroke:#000000;stroke-linecap:round;stroke-linejoin:round;stroke-miterlimit:10;" points="
			473.738,198.634 473.738,224.423 487.904,224.423 		"/>
		<polyline style="fill:none;stroke:#000000;stroke-linecap:round;stroke-linejoin:round;stroke-miterlimit:10;" points="
			380.758,115.156 397.492,115.156 397.492,153.904 413.325,153.904 413.325,99.74 460.406,99.74 460.406,109.323 454.156,109.323 
			454.156,115.573 460.406,115.573 460.406,132.239 473.738,132.239 473.738,191.505 		"/>
		<polyline style="fill:none;stroke:#000000;stroke-linecap:round;stroke-linejoin:round;stroke-miterlimit:10;" points="
			190.069,138.698 201.078,138.698 201.078,77.734 195.533,77.734 195.533,68.557 211.603,68.557 211.603,77.67 207.33,77.67 
			207.33,104.089 219.295,104.089 219.295,66.772 318.712,66.772 318.712,102.665 336.659,102.665 336.659,156.789 352.495,156.789 
			352.495,115.156 373.63,115.156 		"/>
		<polyline style="fill:none;stroke:#000000;stroke-linecap:round;stroke-linejoin:round;stroke-miterlimit:10;" points="
			89.081,119.688 111.27,119.688 111.27,140.009 121.103,140.009 121.103,84.945 159.779,84.945 159.779,103.955 168.301,103.955 
			168.301,118.377 177.479,118.377 177.479,138.698 184.723,138.698 		"/>
		<polyline style="fill:none;stroke:#000000;stroke-linecap:round;stroke-linejoin:round;stroke-miterlimit:10;" points="
			33.263,227.194 48.34,227.194 48.34,152.464 70.628,152.464 70.628,119.688 81.953,119.688 		"/>
		<polyline style="fill:none;stroke:#000000;stroke-linecap:round;stroke-linejoin:round;stroke-miterlimit:10;" points="
			236.178,132.695 236.178,83.727 310.937,83.727 310.937,155.565 		"/>
		
			<line style="fill:none;stroke:#000000;stroke-linecap:round;stroke-linejoin:round;stroke-miterlimit:10;" x1="236.178" y1="159.654" x2="236.178" y2="138.041"/>
		
			<rect x="264.213" y="94.24" style="fill:none;stroke:#000000;stroke-linecap:round;stroke-linejoin:round;stroke-miterlimit:10;" width="46.14" height="4.672"/>
		
			<rect x="264.213" y="106.505" style="fill:none;stroke:#000000;stroke-linecap:round;stroke-linejoin:round;stroke-miterlimit:10;" width="46.14" height="4.672"/>
		
			<rect x="264.213" y="118.77" style="fill:none;stroke:#000000;stroke-linecap:round;stroke-linejoin:round;stroke-miterlimit:10;" width="46.14" height="4.672"/>
		
			<rect x="264.213" y="131.035" style="fill:none;stroke:#000000;stroke-linecap:round;stroke-linejoin:round;stroke-miterlimit:10;" width="46.14" height="4.672"/>
		
			<rect x="264.213" y="143.3" style="fill:none;stroke:#000000;stroke-linecap:round;stroke-linejoin:round;stroke-miterlimit:10;" width="46.14" height="4.672"/>
		<polyline style="fill:none;stroke:#000000;stroke-linecap:round;stroke-linejoin:round;stroke-miterlimit:10;" points="
			133.041,152.061 79.068,152.061 79.068,144.468 172.517,144.468 172.517,152.061 140.764,152.061 		"/>
		
			<line style="fill:none;stroke:#000000;stroke-linecap:round;stroke-linejoin:round;stroke-miterlimit:10;" x1="83.293" y1="152.073" x2="83.293" y2="204.128"/>
		
			<line style="fill:none;stroke:#000000;stroke-linecap:round;stroke-linejoin:round;stroke-miterlimit:10;" x1="169.28" y1="152.458" x2="169.28" y2="164.99"/>
		<polyline style="fill:none;stroke:#000000;stroke-linecap:round;stroke-linejoin:round;stroke-miterlimit:10;" points="
			476.4,241.405 469.271,241.405 469.271,274.078 459.767,274.078 459.767,268.731 449.668,268.731 449.668,184.377 
			393.233,184.377 393.233,225.96 384.917,225.96 		"/>
		
			<line style="fill:none;stroke:#000000;stroke-linecap:round;stroke-linejoin:round;stroke-miterlimit:10;" x1="71.854" y1="235.465" x2="21.954" y2="235.465"/>
		
			<line style="fill:none;stroke:#000000;stroke-linecap:round;stroke-linejoin:round;stroke-miterlimit:10;" x1="86.111" y1="235.465" x2="78.983" y2="235.465"/>
	</g>
</g>
<g id="Building_1">
	<g>
		
			<rect x="136.034" y="167.089" style="fill:#FFFFFF;stroke:#000000;stroke-linecap:round;stroke-linejoin:round;stroke-miterlimit:10;" width="231.395" height="33.253"/>
		
			<rect x="261.223" y="167.089" style="fill:#FFFFFF;stroke:#000000;stroke-linecap:round;stroke-linejoin:round;stroke-miterlimit:10;" width="106.207" height="33.253"/>
		
			<rect x="126.036" y="197.062" style="fill:#FFFFFF;stroke:#000000;stroke-linecap:round;stroke-linejoin:round;stroke-miterlimit:10;" width="251.392" height="7.72"/>
		
			<rect x="264.678" y="202.128" style="fill:#FFFFFF;stroke:#000000;stroke-linecap:round;stroke-linejoin:round;stroke-miterlimit:10;" width="111.418" height="238.113"/>
		
			<rect x="262.976" y="213.842" style="stroke:#000000;stroke-linecap:round;stroke-linejoin:round;stroke-miterlimit:10;" width="113.133" height="5.954"/>
		
			<rect x="262.976" y="402.521" style="stroke:#000000;stroke-linecap:round;stroke-linejoin:round;stroke-miterlimit:10;" width="113.133" height="5.954"/>
		<rect x="264.678" y="202.128" style="fill:#92E3A9;stroke:#263238;stroke-miterlimit:10;" width="116.747" height="13.635"/>
		<rect x="273.934" y="202.128" style="fill:#92E3A9;stroke:#263238;stroke-miterlimit:10;" width="107.491" height="13.635"/>
		<rect x="264.678" y="391.275" style="fill:#92E3A9;stroke:#263238;stroke-miterlimit:10;" width="116.747" height="13.635"/>
		<rect x="272.743" y="391.275" style="fill:#92E3A9;stroke:#263238;stroke-miterlimit:10;" width="108.683" height="13.635"/>
		
			<rect x="124.673" y="218.103" style="stroke:#000000;stroke-linecap:round;stroke-linejoin:round;stroke-miterlimit:10;" width="45.38" height="186.615"/>
		<polygon style="fill:#92E3A9;stroke:#263238;stroke-miterlimit:10;" points="121.342,202.128 121.342,223.197 174.684,223.197 
			174.684,242.145 121.342,242.145 121.342,262.095 174.684,262.095 174.684,281.043 121.342,281.043 121.342,300.992 
			174.684,300.992 174.684,319.94 121.342,319.94 121.342,339.889 174.684,339.889 174.684,358.837 121.342,358.837 
			121.342,378.786 174.684,378.786 174.684,397.735 121.342,397.735 121.342,440.241 210.191,440.241 210.191,202.128 		"/>
		
			<rect x="176.447" y="202.128" style="fill:#FFFFFF;stroke:#000000;stroke-linecap:round;stroke-linejoin:round;stroke-miterlimit:10;" width="88.848" height="238.113"/>
		
			<rect x="166.26" y="202.128" style="fill:#FFFFFF;stroke:#000000;stroke-linecap:round;stroke-linejoin:round;stroke-miterlimit:10;" width="88.848" height="238.113"/>
		<rect x="187.495" y="212.858" style="fill:#92E3A9;stroke:#263238;stroke-miterlimit:10;" width="47.287" height="47.287"/>
		<g>
			<g>
				
					<rect x="268.721" y="223.601" style="stroke:#000000;stroke-linecap:round;stroke-linejoin:round;stroke-miterlimit:10;" width="15.441" height="16.705"/>
				
					<rect x="290.435" y="223.601" style="stroke:#000000;stroke-linecap:round;stroke-linejoin:round;stroke-miterlimit:10;" width="15.441" height="16.705"/>
				
					<rect x="312.148" y="223.601" style="stroke:#000000;stroke-linecap:round;stroke-linejoin:round;stroke-miterlimit:10;" width="15.441" height="16.705"/>
				
					<rect x="333.861" y="223.601" style="stroke:#000000;stroke-linecap:round;stroke-linejoin:round;stroke-miterlimit:10;" width="15.441" height="16.705"/>
				
					<rect x="355.575" y="223.601" style="stroke:#000000;stroke-linecap:round;stroke-linejoin:round;stroke-miterlimit:10;" width="15.441" height="16.705"/>
			</g>
			<g>
				
					<rect x="268.721" y="252.696" style="stroke:#000000;stroke-linecap:round;stroke-linejoin:round;stroke-miterlimit:10;" width="15.441" height="16.705"/>
				
					<rect x="290.435" y="252.696" style="stroke:#000000;stroke-linecap:round;stroke-linejoin:round;stroke-miterlimit:10;" width="15.441" height="16.705"/>
				
					<rect x="312.148" y="252.696" style="stroke:#000000;stroke-linecap:round;stroke-linejoin:round;stroke-miterlimit:10;" width="15.441" height="16.705"/>
				
					<rect x="333.861" y="252.696" style="stroke:#000000;stroke-linecap:round;stroke-linejoin:round;stroke-miterlimit:10;" width="15.441" height="16.705"/>
				
					<rect x="355.575" y="252.696" style="stroke:#000000;stroke-linecap:round;stroke-linejoin:round;stroke-miterlimit:10;" width="15.441" height="16.705"/>
			</g>
			<g>
				
					<rect x="268.721" y="281.791" style="stroke:#000000;stroke-linecap:round;stroke-linejoin:round;stroke-miterlimit:10;" width="15.441" height="16.705"/>
				
					<rect x="290.435" y="281.791" style="stroke:#000000;stroke-linecap:round;stroke-linejoin:round;stroke-miterlimit:10;" width="15.441" height="16.705"/>
				
					<rect x="312.148" y="281.791" style="stroke:#000000;stroke-linecap:round;stroke-linejoin:round;stroke-miterlimit:10;" width="15.441" height="16.705"/>
				
					<rect x="333.861" y="281.791" style="stroke:#000000;stroke-linecap:round;stroke-linejoin:round;stroke-miterlimit:10;" width="15.441" height="16.705"/>
				
					<rect x="355.575" y="281.791" style="stroke:#000000;stroke-linecap:round;stroke-linejoin:round;stroke-miterlimit:10;" width="15.441" height="16.705"/>
			</g>
			<g>
				
					<rect x="268.721" y="310.886" style="stroke:#000000;stroke-linecap:round;stroke-linejoin:round;stroke-miterlimit:10;" width="15.441" height="16.705"/>
				
					<rect x="290.435" y="310.886" style="stroke:#000000;stroke-linecap:round;stroke-linejoin:round;stroke-miterlimit:10;" width="15.441" height="16.705"/>
				
					<rect x="312.148" y="310.886" style="stroke:#000000;stroke-linecap:round;stroke-linejoin:round;stroke-miterlimit:10;" width="15.441" height="16.705"/>
				
					<rect x="333.861" y="310.886" style="stroke:#000000;stroke-linecap:round;stroke-linejoin:round;stroke-miterlimit:10;" width="15.441" height="16.705"/>
				
					<rect x="355.575" y="310.886" style="stroke:#000000;stroke-linecap:round;stroke-linejoin:round;stroke-miterlimit:10;" width="15.441" height="16.705"/>
			</g>
			<g>
				
					<rect x="268.721" y="339.981" style="stroke:#000000;stroke-linecap:round;stroke-linejoin:round;stroke-miterlimit:10;" width="15.441" height="16.705"/>
				
					<rect x="290.435" y="339.981" style="stroke:#000000;stroke-linecap:round;stroke-linejoin:round;stroke-miterlimit:10;" width="15.441" height="16.705"/>
				
					<rect x="312.148" y="339.981" style="stroke:#000000;stroke-linecap:round;stroke-linejoin:round;stroke-miterlimit:10;" width="15.441" height="16.705"/>
				
					<rect x="333.861" y="339.981" style="stroke:#000000;stroke-linecap:round;stroke-linejoin:round;stroke-miterlimit:10;" width="15.441" height="16.705"/>
				
					<rect x="355.575" y="339.981" style="stroke:#000000;stroke-linecap:round;stroke-linejoin:round;stroke-miterlimit:10;" width="15.441" height="16.705"/>
			</g>
			<g>
				
					<rect x="268.721" y="369.076" style="stroke:#000000;stroke-linecap:round;stroke-linejoin:round;stroke-miterlimit:10;" width="15.441" height="16.705"/>
				
					<rect x="290.435" y="369.076" style="stroke:#000000;stroke-linecap:round;stroke-linejoin:round;stroke-miterlimit:10;" width="15.441" height="16.705"/>
				
					<rect x="312.148" y="369.076" style="stroke:#000000;stroke-linecap:round;stroke-linejoin:round;stroke-miterlimit:10;" width="15.441" height="16.705"/>
				
					<rect x="333.861" y="369.076" style="stroke:#000000;stroke-linecap:round;stroke-linejoin:round;stroke-miterlimit:10;" width="15.441" height="16.705"/>
				
					<rect x="355.575" y="369.076" style="stroke:#000000;stroke-linecap:round;stroke-linejoin:round;stroke-miterlimit:10;" width="15.441" height="16.705"/>
			</g>
		</g>
		<g>
			
				<rect x="274.099" y="413.23" style="stroke:#000000;stroke-linecap:round;stroke-linejoin:round;stroke-miterlimit:10;" width="20.366" height="27.011"/>
			
				<rect x="347.824" y="413.23" style="stroke:#000000;stroke-linecap:round;stroke-linejoin:round;stroke-miterlimit:10;" width="20.366" height="27.011"/>
			
				<rect x="301.797" y="413.23" style="stroke:#000000;stroke-linecap:round;stroke-linejoin:round;stroke-miterlimit:10;" width="38.747" height="27.011"/>
		</g>
		<g>
			<path style="fill:#263238;" d="M200.559,254.618v-36.234h7.381v14.896h6.397v-14.896h7.381v36.234h-7.381v-16.06h-6.397v16.06
				H200.559z"/>
		</g>
		<g>
			<g>
				
					<rect x="188.618" y="268.347" style="fill:#FFFFFF;stroke:#000000;stroke-linecap:round;stroke-linejoin:round;stroke-miterlimit:10;" width="45.843" height="150.89"/>
				
					<line style="fill:none;stroke:#000000;stroke-linecap:round;stroke-linejoin:round;stroke-miterlimit:10;" x1="211.264" y1="268.763" x2="211.264" y2="419.193"/>
				<g>
					
						<line style="fill:none;stroke:#000000;stroke-linecap:round;stroke-linejoin:round;stroke-miterlimit:10;" x1="188.823" y1="285.2" x2="233.985" y2="285.2"/>
					
						<line style="fill:none;stroke:#000000;stroke-linecap:round;stroke-linejoin:round;stroke-miterlimit:10;" x1="188.823" y1="302.469" x2="233.985" y2="302.469"/>
					
						<line style="fill:none;stroke:#000000;stroke-linecap:round;stroke-linejoin:round;stroke-miterlimit:10;" x1="188.823" y1="319.737" x2="233.985" y2="319.737"/>
					
						<line style="fill:none;stroke:#000000;stroke-linecap:round;stroke-linejoin:round;stroke-miterlimit:10;" x1="188.823" y1="337.005" x2="233.985" y2="337.005"/>
					
						<line style="fill:none;stroke:#000000;stroke-linecap:round;stroke-linejoin:round;stroke-miterlimit:10;" x1="188.823" y1="354.274" x2="233.985" y2="354.274"/>
					
						<line style="fill:none;stroke:#000000;stroke-linecap:round;stroke-linejoin:round;stroke-miterlimit:10;" x1="188.823" y1="371.542" x2="233.985" y2="371.542"/>
					
						<line style="fill:none;stroke:#000000;stroke-linecap:round;stroke-linejoin:round;stroke-miterlimit:10;" x1="188.823" y1="388.811" x2="233.985" y2="388.811"/>
					
						<line style="fill:none;stroke:#000000;stroke-linecap:round;stroke-linejoin:round;stroke-miterlimit:10;" x1="188.823" y1="406.079" x2="233.985" y2="406.079"/>
				</g>
			</g>
			<g>
				
					<line style="fill:none;stroke:#000000;stroke-linecap:round;stroke-linejoin:round;stroke-miterlimit:10;" x1="206.49" y1="271.544" x2="197.075" y2="280.959"/>
				
					<line style="fill:none;stroke:#000000;stroke-linecap:round;stroke-linejoin:round;stroke-miterlimit:10;" x1="197.211" y1="276.183" x2="193.937" y2="279.458"/>
			</g>
			<g>
				
					<line style="fill:none;stroke:#000000;stroke-linecap:round;stroke-linejoin:round;stroke-miterlimit:10;" x1="206.49" y1="289.282" x2="197.075" y2="298.697"/>
				
					<line style="fill:none;stroke:#000000;stroke-linecap:round;stroke-linejoin:round;stroke-miterlimit:10;" x1="197.211" y1="293.922" x2="193.937" y2="297.196"/>
			</g>
			<g>
				
					<line style="fill:none;stroke:#000000;stroke-linecap:round;stroke-linejoin:round;stroke-miterlimit:10;" x1="206.49" y1="307.021" x2="197.075" y2="316.436"/>
				
					<line style="fill:none;stroke:#000000;stroke-linecap:round;stroke-linejoin:round;stroke-miterlimit:10;" x1="197.211" y1="311.66" x2="193.937" y2="314.935"/>
			</g>
			<g>
				
					<line style="fill:none;stroke:#000000;stroke-linecap:round;stroke-linejoin:round;stroke-miterlimit:10;" x1="206.49" y1="323.668" x2="197.075" y2="333.083"/>
				
					<line style="fill:none;stroke:#000000;stroke-linecap:round;stroke-linejoin:round;stroke-miterlimit:10;" x1="197.211" y1="328.307" x2="193.937" y2="331.582"/>
			</g>
			<g>
				
					<line style="fill:none;stroke:#000000;stroke-linecap:round;stroke-linejoin:round;stroke-miterlimit:10;" x1="206.49" y1="341.133" x2="197.075" y2="350.548"/>
				
					<line style="fill:none;stroke:#000000;stroke-linecap:round;stroke-linejoin:round;stroke-miterlimit:10;" x1="197.211" y1="345.773" x2="193.937" y2="349.047"/>
			</g>
			<g>
				
					<line style="fill:none;stroke:#000000;stroke-linecap:round;stroke-linejoin:round;stroke-miterlimit:10;" x1="206.49" y1="357.507" x2="197.075" y2="366.922"/>
				
					<line style="fill:none;stroke:#000000;stroke-linecap:round;stroke-linejoin:round;stroke-miterlimit:10;" x1="197.211" y1="362.147" x2="193.937" y2="365.422"/>
			</g>
			<g>
				
					<line style="fill:none;stroke:#000000;stroke-linecap:round;stroke-linejoin:round;stroke-miterlimit:10;" x1="206.49" y1="375.246" x2="197.075" y2="384.661"/>
				
					<line style="fill:none;stroke:#000000;stroke-linecap:round;stroke-linejoin:round;stroke-miterlimit:10;" x1="197.211" y1="379.885" x2="193.937" y2="383.16"/>
			</g>
			<g>
				
					<line style="fill:none;stroke:#000000;stroke-linecap:round;stroke-linejoin:round;stroke-miterlimit:10;" x1="206.49" y1="393.257" x2="197.075" y2="402.672"/>
				
					<line style="fill:none;stroke:#000000;stroke-linecap:round;stroke-linejoin:round;stroke-miterlimit:10;" x1="197.211" y1="397.897" x2="193.937" y2="401.172"/>
			</g>
			<g>
				
					<line style="fill:none;stroke:#000000;stroke-linecap:round;stroke-linejoin:round;stroke-miterlimit:10;" x1="206.49" y1="407.448" x2="197.075" y2="416.863"/>
				
					<line style="fill:none;stroke:#000000;stroke-linecap:round;stroke-linejoin:round;stroke-miterlimit:10;" x1="197.211" y1="412.087" x2="193.937" y2="415.362"/>
			</g>
			<g>
				
					<line style="fill:none;stroke:#000000;stroke-linecap:round;stroke-linejoin:round;stroke-miterlimit:10;" x1="228.227" y1="271.544" x2="218.812" y2="280.959"/>
				
					<line style="fill:none;stroke:#000000;stroke-linecap:round;stroke-linejoin:round;stroke-miterlimit:10;" x1="218.949" y1="276.183" x2="215.674" y2="279.458"/>
			</g>
			<g>
				
					<line style="fill:none;stroke:#000000;stroke-linecap:round;stroke-linejoin:round;stroke-miterlimit:10;" x1="228.227" y1="289.282" x2="218.812" y2="298.697"/>
				
					<line style="fill:none;stroke:#000000;stroke-linecap:round;stroke-linejoin:round;stroke-miterlimit:10;" x1="218.949" y1="293.922" x2="215.674" y2="297.196"/>
			</g>
			<g>
				
					<line style="fill:none;stroke:#000000;stroke-linecap:round;stroke-linejoin:round;stroke-miterlimit:10;" x1="228.227" y1="307.021" x2="218.812" y2="316.436"/>
				
					<line style="fill:none;stroke:#000000;stroke-linecap:round;stroke-linejoin:round;stroke-miterlimit:10;" x1="218.949" y1="311.66" x2="215.674" y2="314.935"/>
			</g>
			<g>
				
					<line style="fill:none;stroke:#000000;stroke-linecap:round;stroke-linejoin:round;stroke-miterlimit:10;" x1="228.227" y1="323.668" x2="218.812" y2="333.083"/>
				
					<line style="fill:none;stroke:#000000;stroke-linecap:round;stroke-linejoin:round;stroke-miterlimit:10;" x1="218.949" y1="328.307" x2="215.674" y2="331.582"/>
			</g>
			<g>
				
					<line style="fill:none;stroke:#000000;stroke-linecap:round;stroke-linejoin:round;stroke-miterlimit:10;" x1="228.227" y1="341.133" x2="218.812" y2="350.548"/>
				
					<line style="fill:none;stroke:#000000;stroke-linecap:round;stroke-linejoin:round;stroke-miterlimit:10;" x1="218.949" y1="345.773" x2="215.674" y2="349.047"/>
			</g>
			<g>
				
					<line style="fill:none;stroke:#000000;stroke-linecap:round;stroke-linejoin:round;stroke-miterlimit:10;" x1="228.227" y1="357.507" x2="218.812" y2="366.922"/>
				
					<line style="fill:none;stroke:#000000;stroke-linecap:round;stroke-linejoin:round;stroke-miterlimit:10;" x1="218.949" y1="362.147" x2="215.674" y2="365.422"/>
			</g>
			<g>
				
					<line style="fill:none;stroke:#000000;stroke-linecap:round;stroke-linejoin:round;stroke-miterlimit:10;" x1="228.227" y1="375.246" x2="218.812" y2="384.661"/>
				
					<line style="fill:none;stroke:#000000;stroke-linecap:round;stroke-linejoin:round;stroke-miterlimit:10;" x1="218.949" y1="379.885" x2="215.674" y2="383.16"/>
			</g>
			<g>
				
					<line style="fill:none;stroke:#000000;stroke-linecap:round;stroke-linejoin:round;stroke-miterlimit:10;" x1="228.227" y1="393.257" x2="218.812" y2="402.672"/>
				
					<line style="fill:none;stroke:#000000;stroke-linecap:round;stroke-linejoin:round;stroke-miterlimit:10;" x1="218.949" y1="397.897" x2="215.674" y2="401.172"/>
			</g>
			<g>
				
					<line style="fill:none;stroke:#000000;stroke-linecap:round;stroke-linejoin:round;stroke-miterlimit:10;" x1="228.227" y1="407.448" x2="218.812" y2="416.863"/>
				
					<line style="fill:none;stroke:#000000;stroke-linecap:round;stroke-linejoin:round;stroke-miterlimit:10;" x1="218.949" y1="412.087" x2="215.674" y2="415.362"/>
			</g>
		</g>
		<g>
			<path style="fill:#263238;" d="M269.133,192.286V172.22h4.088v8.25h3.542v-8.25h4.088v20.066h-4.088v-8.893h-3.542v8.893H269.133
				z"/>
			<path style="fill:#263238;" d="M289.546,192.559c-1.47,0-2.634-0.264-3.493-0.793c-0.859-0.529-1.474-1.284-1.845-2.267
				c-0.371-0.982-0.558-2.159-0.558-3.53v-7.481c0-1.371,0.186-2.543,0.558-3.518c0.372-0.974,0.986-1.717,1.845-2.23
				c0.859-0.512,2.023-0.768,3.493-0.768c1.486,0,2.663,0.26,3.53,0.781c0.867,0.52,1.486,1.263,1.858,2.229
				c0.372,0.966,0.558,2.135,0.558,3.505v7.481c0,1.371-0.186,2.548-0.558,3.53c-0.372,0.983-0.991,1.738-1.858,2.267
				C292.209,192.295,291.033,192.559,289.546,192.559z M289.546,189.611c0.528,0,0.917-0.12,1.165-0.359
				c0.247-0.239,0.413-0.561,0.496-0.966c0.082-0.404,0.124-0.838,0.124-1.301v-9.488c0-0.462-0.042-0.892-0.124-1.289
				c-0.083-0.396-0.248-0.714-0.496-0.954c-0.248-0.239-0.636-0.359-1.165-0.359c-0.495,0-0.867,0.12-1.115,0.359
				c-0.248,0.24-0.413,0.557-0.496,0.954c-0.083,0.396-0.124,0.826-0.124,1.289v9.488c0,0.463,0.037,0.896,0.111,1.301
				c0.074,0.405,0.235,0.727,0.483,0.966C288.655,189.492,289.034,189.611,289.546,189.611z"/>
			<path style="fill:#263238;" d="M303.419,192.559c-1.238,0-2.271-0.227-3.097-0.681c-0.826-0.454-1.449-1.14-1.87-2.056
				c-0.421-0.917-0.665-2.085-0.731-3.505l3.518-0.595c0.033,0.826,0.12,1.516,0.26,2.068c0.14,0.554,0.355,0.966,0.645,1.239
				c0.289,0.272,0.648,0.409,1.078,0.409c0.528,0,0.887-0.165,1.078-0.495c0.189-0.331,0.285-0.71,0.285-1.14
				c0-0.842-0.203-1.548-0.607-2.118c-0.405-0.57-0.938-1.144-1.598-1.722l-2.081-1.809c-0.743-0.627-1.35-1.338-1.821-2.13
				c-0.471-0.793-0.706-1.767-0.706-2.923c0-1.651,0.483-2.919,1.449-3.803c0.966-0.883,2.292-1.326,3.976-1.326
				c1.007,0,1.833,0.165,2.477,0.496c0.645,0.331,1.143,0.772,1.499,1.326c0.355,0.553,0.603,1.156,0.743,1.808
				c0.14,0.653,0.227,1.301,0.26,1.945l-3.493,0.52c-0.033-0.61-0.087-1.148-0.161-1.61c-0.074-0.462-0.223-0.826-0.446-1.09
				c-0.223-0.264-0.558-0.396-1.003-0.396c-0.479,0-0.834,0.178-1.065,0.533c-0.232,0.355-0.347,0.748-0.347,1.177
				c0,0.71,0.161,1.293,0.483,1.747c0.322,0.455,0.764,0.929,1.325,1.424l2.031,1.784c0.842,0.727,1.565,1.557,2.168,2.49
				c0.603,0.934,0.904,2.085,0.904,3.456c0,0.941-0.215,1.792-0.645,2.552c-0.43,0.76-1.028,1.355-1.796,1.784
				C305.364,192.344,304.46,192.559,303.419,192.559z"/>
			<path style="fill:#263238;" d="M310.406,192.286V172.22h6.366c1.205,0,2.19,0.227,2.949,0.681c0.76,0.455,1.324,1.111,1.697,1.97
				c0.371,0.859,0.557,1.899,0.557,3.121c0,1.437-0.244,2.561-0.73,3.369c-0.488,0.81-1.152,1.384-1.994,1.722
				c-0.844,0.338-1.809,0.508-2.898,0.508h-1.859v8.695H310.406z M314.493,180.717h1.438c0.594,0,1.053-0.095,1.375-0.285
				c0.322-0.19,0.541-0.491,0.656-0.904c0.115-0.413,0.174-0.941,0.174-1.585c0-0.611-0.045-1.123-0.137-1.536
				c-0.09-0.413-0.293-0.734-0.607-0.966c-0.313-0.231-0.809-0.347-1.486-0.347h-1.412V180.717z"/>
			<path style="fill:#263238;" d="M323.981,192.286V172.22h4.064v20.066H323.981z"/>
			<path style="fill:#263238;" d="M332.999,192.286v-17.02h-3.097v-3.047h10.257v3.047h-3.047v17.02H332.999z"/>
			<path style="fill:#263238;" d="M340.257,192.286l3.89-20.066h4.533l3.864,20.066h-3.79l-0.719-4.41h-3.171l-0.768,4.41H340.257z
				 M345.237,185.375h2.402l-1.214-8.101L345.237,185.375z"/>
			<path style="fill:#263238;" d="M354.427,192.286V172.22h4.088v17.292h4.707v2.774H354.427z"/>
		</g>
	</g>
</g>
<g id="Trees">
	<g>
		<path style="fill:#92E3A9;" d="M109.904,376.831c0,15.109-8.938,27.358-19.964,27.358s-19.964-12.249-19.964-27.358
			c0-15.11,8.938-67.04,19.964-67.04S109.904,361.721,109.904,376.831z"/>
		<polygon points="101.134,384.736 95.089,386.972 96.302,383.333 93.411,387.592 90.526,388.659 90.32,376.71 100.822,362.757 
			95.194,368.385 96.146,364.472 93.453,370.126 90.261,373.318 89.94,354.649 88.796,381.877 78.843,371.331 84.31,378.762 
			79.155,378.189 85.523,380.41 88.677,384.698 88.126,397.826 84.455,395.336 88.011,400.543 86.325,440.667 91.423,440.667 
			90.559,390.566 		"/>
		<g>
			<path style="fill:#FFFFFF;" d="M100.923,354.708c0,0,0.185,1.834-0.818,3.181c-1.003,1.346-2.813,1.695-2.813,1.695
				s-0.185-1.834,0.818-3.181C99.113,355.056,100.923,354.708,100.923,354.708z"/>
			<path style="fill:#FFFFFF;" d="M106.94,363.162c0,0,0.185,1.834-0.818,3.181c-1.003,1.346-2.813,1.695-2.813,1.695
				s-0.185-1.834,0.818-3.181C105.13,363.511,106.94,363.162,106.94,363.162z"/>
			<path style="fill:#FFFFFF;" d="M106.937,379.622c0,0-0.444,1.789-1.841,2.72c-1.397,0.93-3.219,0.65-3.219,0.65
				s0.444-1.789,1.841-2.72C105.115,379.341,106.937,379.622,106.937,379.622z"/>
			<path style="fill:#FFFFFF;" d="M73.891,379.622c0,0,0.444,1.789,1.841,2.72c1.397,0.93,3.219,0.65,3.219,0.65
				s-0.444-1.789-1.841-2.72C75.713,379.341,73.891,379.622,73.891,379.622z"/>
			<path style="fill:#FFFFFF;" d="M99.987,372.789c0,0,0.185,1.834-0.818,3.181c-1.003,1.346-2.813,1.695-2.813,1.695
				s-0.185-1.834,0.818-3.181C98.177,373.138,99.987,372.789,99.987,372.789z"/>
			<path style="fill:#FFFFFF;" d="M98.429,345.511c0,0,0.185,1.834-0.818,3.181c-1.003,1.346-2.813,1.695-2.813,1.695
				s-0.185-1.834,0.818-3.181C96.618,345.86,98.429,345.511,98.429,345.511z"/>
			<path style="fill:#FFFFFF;" d="M94.843,352.525c0,0,0.185,1.834-0.818,3.181c-1.002,1.346-2.813,1.695-2.813,1.695
				s-0.185-1.834,0.818-3.181C93.033,352.874,94.843,352.525,94.843,352.525z"/>
			<path style="fill:#FFFFFF;" d="M103.355,347.418c0,0,0.185,1.834-0.818,3.181c-1.003,1.347-2.813,1.695-2.813,1.695
				s-0.185-1.834,0.818-3.181C101.545,347.767,103.355,347.418,103.355,347.418z"/>
			<path style="fill:#FFFFFF;" d="M75.697,347.418c0,0-0.185,1.834,0.818,3.181c1.003,1.347,2.813,1.695,2.813,1.695
				s0.185-1.834-0.818-3.181C77.507,347.767,75.697,347.418,75.697,347.418z"/>
			<path style="fill:#FFFFFF;" d="M99.208,336.938c0,0,0.185,1.834-0.818,3.181c-1.003,1.346-2.813,1.695-2.813,1.695
				s-0.185-1.834,0.818-3.181C97.398,337.286,99.208,336.938,99.208,336.938z"/>
			<path style="fill:#FFFFFF;" d="M97.446,327.831c0,0,0.64,1.729,0.007,3.284c-0.632,1.555-2.297,2.348-2.297,2.348
				s-0.639-1.729-0.007-3.284C95.782,328.623,97.446,327.831,97.446,327.831z"/>
			<path style="fill:#FFFFFF;" d="M84.821,325.451c0,0,1.633,0.855,2.205,2.434c0.572,1.578-0.133,3.281-0.133,3.281
				s-1.633-0.855-2.205-2.434C84.117,327.154,84.821,325.451,84.821,325.451z"/>
			<path style="fill:#FFFFFF;" d="M90.709,336.341c0,0,1.163,1.43,1.067,3.106c-0.096,1.676-1.416,2.963-1.416,2.963
				s-1.163-1.43-1.067-3.106C89.389,337.628,90.709,336.341,90.709,336.341z"/>
			<path style="fill:#FFFFFF;" d="M90.397,320.13c0,0,1.163,1.43,1.067,3.106c-0.096,1.676-1.416,2.963-1.416,2.963
				s-1.163-1.43-1.067-3.106C89.077,321.417,90.397,320.13,90.397,320.13z"/>
			<path style="fill:#FFFFFF;" d="M77.184,354.708c0,0-0.185,1.834,0.818,3.181c1.003,1.346,2.813,1.695,2.813,1.695
				s0.185-1.834-0.818-3.181C78.994,355.056,77.184,354.708,77.184,354.708z"/>
			<path style="fill:#FFFFFF;" d="M73.755,364.684c0,0-0.185,1.834,0.818,3.181c1.003,1.346,2.813,1.695,2.813,1.695
				s0.185-1.834-0.818-3.181C75.565,365.033,73.755,364.684,73.755,364.684z"/>
			<path style="fill:#FFFFFF;" d="M82.858,368.306c0,0-0.185,1.834,0.818,3.181c1.003,1.346,2.813,1.695,2.813,1.695
				s0.185-1.834-0.818-3.181C84.668,368.655,82.858,368.306,82.858,368.306z"/>
			<path style="fill:#FFFFFF;" d="M85.346,354.483c0,0-0.702,1.704-0.127,3.282c0.575,1.577,2.209,2.43,2.209,2.43
				s0.702-1.704,0.127-3.282C86.981,355.335,85.346,354.483,85.346,354.483z"/>
			<path style="fill:#FFFFFF;" d="M78.9,391.265c0,0,1.843,0.034,3.103-1.076c1.26-1.11,1.459-2.942,1.459-2.942
				s-1.843-0.034-3.103,1.076C79.1,389.433,78.9,391.265,78.9,391.265z"/>
			<path style="fill:#FFFFFF;" d="M96.587,389.249c0,0,0.501,1.774,1.927,2.659c1.426,0.885,3.238,0.546,3.238,0.546
				s-0.501-1.774-1.927-2.659C98.399,388.91,96.587,389.249,96.587,389.249z"/>
			<path style="fill:#FFFFFF;" d="M80.957,345.511c0,0-0.185,1.834,0.818,3.181c1.003,1.346,2.813,1.695,2.813,1.695
				s0.185-1.834-0.818-3.181C82.767,345.86,80.957,345.511,80.957,345.511z"/>
			<path style="fill:#FFFFFF;" d="M80.925,337.405c0,0-0.185,1.834,0.818,3.181c1.003,1.346,2.813,1.695,2.813,1.695
				s0.185-1.834-0.818-3.181C82.735,337.754,80.925,337.405,80.925,337.405z"/>
		</g>
	</g>
	<g>
		<path style="fill:#92E3A9;" d="M433.408,376.831c0,15.109-8.938,27.358-19.964,27.358c-11.026,0-19.964-12.249-19.964-27.358
			c0-15.11,8.938-67.04,19.964-67.04C424.47,309.791,433.408,361.721,433.408,376.831z"/>
		<polygon points="424.638,384.736 418.593,386.972 419.806,383.333 416.916,387.592 414.031,388.659 413.825,376.71 
			424.327,362.757 418.698,368.385 419.65,364.472 416.958,370.126 413.766,373.318 413.444,354.649 412.3,381.877 402.348,371.331 
			407.815,378.762 402.66,378.189 409.027,380.41 412.182,384.698 411.63,397.826 407.96,395.336 411.516,400.543 409.83,440.667 
			414.927,440.667 414.063,390.566 		"/>
		<g>
			<path style="fill:#FFFFFF;" d="M424.427,354.708c0,0,0.185,1.834-0.818,3.181c-1.003,1.346-2.813,1.695-2.813,1.695
				s-0.185-1.834,0.818-3.181C422.617,355.056,424.427,354.708,424.427,354.708z"/>
			<path style="fill:#FFFFFF;" d="M430.444,363.162c0,0,0.185,1.834-0.818,3.181c-1.003,1.346-2.813,1.695-2.813,1.695
				s-0.185-1.834,0.818-3.181C428.634,363.511,430.444,363.162,430.444,363.162z"/>
			<path style="fill:#FFFFFF;" d="M430.442,379.622c0,0-0.444,1.789-1.841,2.72c-1.397,0.93-3.219,0.65-3.219,0.65
				s0.444-1.789,1.841-2.72C428.62,379.341,430.442,379.622,430.442,379.622z"/>
			<path style="fill:#FFFFFF;" d="M397.396,379.622c0,0,0.444,1.789,1.841,2.72c1.397,0.93,3.219,0.65,3.219,0.65
				s-0.444-1.789-1.841-2.72C399.218,379.341,397.396,379.622,397.396,379.622z"/>
			<path style="fill:#FFFFFF;" d="M423.492,372.789c0,0,0.185,1.834-0.818,3.181c-1.003,1.346-2.813,1.695-2.813,1.695
				s-0.185-1.834,0.818-3.181C421.682,373.138,423.492,372.789,423.492,372.789z"/>
			<path style="fill:#FFFFFF;" d="M421.933,345.511c0,0,0.185,1.834-0.818,3.181c-1.003,1.346-2.813,1.695-2.813,1.695
				s-0.185-1.834,0.818-3.181C420.123,345.86,421.933,345.511,421.933,345.511z"/>
			<path style="fill:#FFFFFF;" d="M418.348,352.525c0,0,0.185,1.834-0.818,3.181s-2.813,1.695-2.813,1.695s-0.185-1.834,0.818-3.181
				C416.538,352.874,418.348,352.525,418.348,352.525z"/>
			<path style="fill:#FFFFFF;" d="M426.859,347.418c0,0,0.185,1.834-0.818,3.181c-1.003,1.347-2.813,1.695-2.813,1.695
				s-0.185-1.834,0.818-3.181C425.049,347.767,426.859,347.418,426.859,347.418z"/>
			<path style="fill:#FFFFFF;" d="M399.202,347.418c0,0-0.185,1.834,0.818,3.181c1.003,1.347,2.813,1.695,2.813,1.695
				s0.185-1.834-0.818-3.181C401.012,347.767,399.202,347.418,399.202,347.418z"/>
			<path style="fill:#FFFFFF;" d="M422.713,336.938c0,0,0.185,1.834-0.818,3.181c-1.003,1.346-2.813,1.695-2.813,1.695
				s-0.185-1.834,0.818-3.181C420.902,337.286,422.713,336.938,422.713,336.938z"/>
			<path style="fill:#FFFFFF;" d="M420.951,327.831c0,0,0.639,1.729,0.007,3.284c-0.632,1.555-2.297,2.348-2.297,2.348
				s-0.639-1.729-0.007-3.284C419.286,328.623,420.951,327.831,420.951,327.831z"/>
			<path style="fill:#FFFFFF;" d="M408.326,325.451c0,0,1.633,0.855,2.205,2.434c0.572,1.578-0.132,3.281-0.132,3.281
				s-1.633-0.855-2.205-2.434S408.326,325.451,408.326,325.451z"/>
			<path style="fill:#FFFFFF;" d="M414.213,336.341c0,0,1.163,1.43,1.067,3.106c-0.096,1.676-1.416,2.963-1.416,2.963
				s-1.163-1.43-1.067-3.106C412.894,337.628,414.213,336.341,414.213,336.341z"/>
			<path style="fill:#FFFFFF;" d="M413.901,320.13c0,0,1.163,1.43,1.067,3.106c-0.096,1.676-1.416,2.963-1.416,2.963
				s-1.163-1.43-1.067-3.106C412.582,321.417,413.901,320.13,413.901,320.13z"/>
			<path style="fill:#FFFFFF;" d="M400.688,354.708c0,0-0.185,1.834,0.818,3.181c1.003,1.346,2.813,1.695,2.813,1.695
				s0.185-1.834-0.818-3.181C402.499,355.056,400.688,354.708,400.688,354.708z"/>
			<path style="fill:#FFFFFF;" d="M397.259,364.684c0,0-0.185,1.834,0.818,3.181s2.813,1.695,2.813,1.695s0.185-1.834-0.818-3.181
				C399.069,365.033,397.259,364.684,397.259,364.684z"/>
			<path style="fill:#FFFFFF;" d="M406.362,368.306c0,0-0.185,1.834,0.818,3.181c1.003,1.346,2.813,1.695,2.813,1.695
				s0.185-1.834-0.818-3.181C408.172,368.655,406.362,368.306,406.362,368.306z"/>
			<path style="fill:#FFFFFF;" d="M408.851,354.483c0,0-0.702,1.704-0.127,3.282c0.575,1.577,2.209,2.43,2.209,2.43
				s0.702-1.704,0.127-3.282C410.485,355.335,408.851,354.483,408.851,354.483z"/>
			<path style="fill:#FFFFFF;" d="M402.405,391.265c0,0,1.843,0.034,3.103-1.076c1.26-1.11,1.459-2.942,1.459-2.942
				s-1.843-0.034-3.103,1.076C402.604,389.433,402.405,391.265,402.405,391.265z"/>
			<path style="fill:#FFFFFF;" d="M420.091,389.249c0,0,0.501,1.774,1.927,2.659c1.426,0.885,3.238,0.546,3.238,0.546
				s-0.501-1.774-1.927-2.659C421.903,388.91,420.091,389.249,420.091,389.249z"/>
			<path style="fill:#FFFFFF;" d="M404.461,345.511c0,0-0.185,1.834,0.818,3.181c1.003,1.346,2.813,1.695,2.813,1.695
				s0.185-1.834-0.818-3.181C406.271,345.86,404.461,345.511,404.461,345.511z"/>
			<path style="fill:#FFFFFF;" d="M404.43,337.405c0,0-0.185,1.834,0.818,3.181c1.003,1.346,2.813,1.695,2.813,1.695
				s0.185-1.834-0.818-3.181C406.24,337.754,404.43,337.405,404.43,337.405z"/>
		</g>
	</g>
	<g>
		<path style="fill:#92E3A9;" d="M461.18,391.539c0,11.628-6.879,21.055-15.364,21.055s-15.364-9.427-15.364-21.055
			s6.879-51.594,15.364-51.594S461.18,379.911,461.18,391.539z"/>
		<polygon points="454.431,397.623 449.779,399.343 450.712,396.543 448.488,399.821 446.267,400.642 446.108,391.446 
			454.191,380.708 449.859,385.039 450.592,382.027 448.52,386.379 446.063,388.835 445.816,374.467 444.935,395.422 
			437.276,387.306 441.483,393.025 437.516,392.584 442.417,394.294 444.844,397.594 444.42,407.697 441.595,405.78 
			444.332,409.788 443.034,440.667 446.957,440.667 446.292,402.109 		"/>
		<g>
			<path style="fill:#FFFFFF;" d="M454.268,374.513c0,0,0.142,1.412-0.629,2.448c-0.772,1.036-2.165,1.305-2.165,1.305
				s-0.142-1.412,0.63-2.448C452.875,374.781,454.268,374.513,454.268,374.513z"/>
			<path style="fill:#FFFFFF;" d="M458.899,381.019c0,0,0.142,1.412-0.629,2.448c-0.772,1.036-2.165,1.305-2.165,1.305
				s-0.142-1.412,0.63-2.448C457.506,381.288,458.899,381.019,458.899,381.019z"/>
			<path style="fill:#FFFFFF;" d="M458.897,393.687c0,0-0.341,1.377-1.417,2.093c-1.075,0.716-2.478,0.5-2.478,0.5
				s0.341-1.377,1.417-2.093C457.495,393.471,458.897,393.687,458.897,393.687z"/>
			<path style="fill:#FFFFFF;" d="M433.465,393.687c0,0,0.341,1.377,1.417,2.093c1.075,0.716,2.477,0.5,2.477,0.5
				s-0.341-1.377-1.417-2.093C434.867,393.471,433.465,393.687,433.465,393.687z"/>
			<path style="fill:#FFFFFF;" d="M453.549,388.429c0,0,0.142,1.412-0.629,2.448c-0.772,1.036-2.165,1.305-2.165,1.305
				s-0.142-1.412,0.629-2.448C452.155,388.697,453.549,388.429,453.549,388.429z"/>
			<path style="fill:#FFFFFF;" d="M452.349,367.435c0,0,0.142,1.412-0.629,2.448c-0.772,1.036-2.165,1.305-2.165,1.305
				s-0.142-1.412,0.63-2.448C450.956,367.704,452.349,367.435,452.349,367.435z"/>
			<path style="fill:#FFFFFF;" d="M449.59,372.833c0,0,0.142,1.412-0.629,2.448c-0.772,1.036-2.165,1.305-2.165,1.305
				s-0.142-1.411,0.63-2.448C448.197,373.102,449.59,372.833,449.59,372.833z"/>
			<path style="fill:#FFFFFF;" d="M456.14,368.903c0,0,0.142,1.411-0.629,2.448c-0.772,1.036-2.165,1.305-2.165,1.305
				s-0.142-1.411,0.629-2.448C454.747,369.172,456.14,368.903,456.14,368.903z"/>
			<path style="fill:#FFFFFF;" d="M434.855,368.903c0,0-0.142,1.411,0.629,2.448c0.772,1.036,2.165,1.305,2.165,1.305
				s0.142-1.411-0.629-2.448C436.248,369.172,434.855,368.903,434.855,368.903z"/>
			<path style="fill:#FFFFFF;" d="M452.949,360.837c0,0,0.142,1.411-0.629,2.448c-0.772,1.036-2.165,1.305-2.165,1.305
				s-0.142-1.411,0.629-2.448C451.556,361.106,452.949,360.837,452.949,360.837z"/>
			<path style="fill:#FFFFFF;" d="M451.593,353.828c0,0,0.492,1.331,0.006,2.527c-0.486,1.197-1.767,1.807-1.767,1.807
				s-0.492-1.331-0.006-2.527C450.312,354.438,451.593,353.828,451.593,353.828z"/>
			<path style="fill:#FFFFFF;" d="M441.877,351.997c0,0,1.257,0.658,1.697,1.873c0.44,1.214-0.102,2.525-0.102,2.525
				s-1.257-0.658-1.697-1.873C441.334,353.308,441.877,351.997,441.877,351.997z"/>
			<path style="fill:#FFFFFF;" d="M446.408,360.378c0,0,0.895,1.101,0.821,2.39c-0.074,1.29-1.09,2.28-1.09,2.28
				s-0.895-1.101-0.821-2.39C445.392,361.369,446.408,360.378,446.408,360.378z"/>
			<path style="fill:#FFFFFF;" d="M446.168,347.902c0,0,0.895,1.101,0.821,2.39c-0.074,1.29-1.09,2.28-1.09,2.28
				s-0.895-1.1-0.821-2.39C445.152,348.893,446.168,347.902,446.168,347.902z"/>
			<path style="fill:#FFFFFF;" d="M435.999,374.513c0,0-0.142,1.412,0.629,2.448c0.772,1.036,2.165,1.305,2.165,1.305
				s0.142-1.412-0.629-2.448C437.392,374.781,435.999,374.513,435.999,374.513z"/>
			<path style="fill:#FFFFFF;" d="M433.36,382.19c0,0-0.142,1.412,0.629,2.448c0.772,1.036,2.165,1.305,2.165,1.305
				s0.142-1.412-0.629-2.448C434.753,382.459,433.36,382.19,433.36,382.19z"/>
			<path style="fill:#FFFFFF;" d="M440.365,384.978c0,0-0.142,1.411,0.63,2.448c0.771,1.036,2.165,1.305,2.165,1.305
				s0.142-1.412-0.629-2.448C441.759,385.246,440.365,384.978,440.365,384.978z"/>
			<path style="fill:#FFFFFF;" d="M442.281,374.34c0,0-0.54,1.312-0.098,2.526s1.7,1.87,1.7,1.87s0.54-1.312,0.098-2.526
				C443.539,374.996,442.281,374.34,442.281,374.34z"/>
			<path style="fill:#FFFFFF;" d="M437.32,402.648c0,0,1.418,0.026,2.388-0.828c0.969-0.854,1.123-2.264,1.123-2.264
				s-1.418-0.026-2.388,0.828C437.473,401.237,437.32,402.648,437.32,402.648z"/>
			<path style="fill:#FFFFFF;" d="M450.931,401.096c0,0,0.385,1.365,1.483,2.047c1.098,0.681,2.492,0.42,2.492,0.42
				s-0.385-1.365-1.483-2.047C452.326,400.835,450.931,401.096,450.931,401.096z"/>
			<path style="fill:#FFFFFF;" d="M438.902,367.435c0,0-0.142,1.412,0.629,2.448c0.772,1.036,2.165,1.305,2.165,1.305
				s0.142-1.412-0.63-2.448C440.296,367.704,438.902,367.435,438.902,367.435z"/>
			<path style="fill:#FFFFFF;" d="M438.878,361.197c0,0-0.142,1.411,0.629,2.448c0.772,1.036,2.165,1.305,2.165,1.305
				s0.142-1.411-0.629-2.448C440.271,361.466,438.878,361.197,438.878,361.197z"/>
		</g>
	</g>
	<g>
		<path style="fill:#92E3A9;" d="M247.451,391.539c0,11.628-6.879,21.055-15.364,21.055c-8.486,0-15.364-9.427-15.364-21.055
			s6.879-51.594,15.364-51.594C240.572,339.945,247.451,379.911,247.451,391.539z"/>
		<polygon points="240.702,397.623 236.049,399.343 236.983,396.543 234.759,399.821 232.538,400.642 232.379,391.446 
			240.462,380.708 236.13,385.039 236.863,382.027 234.791,386.379 232.334,388.835 232.087,374.467 231.206,395.422 
			223.547,387.306 227.754,393.025 223.787,392.584 228.688,394.294 231.115,397.594 230.69,407.697 227.866,405.78 
			230.603,409.788 229.305,440.667 233.228,440.667 232.563,402.109 		"/>
		<g>
			<path style="fill:#FFFFFF;" d="M240.539,374.513c0,0,0.142,1.412-0.63,2.448c-0.772,1.036-2.165,1.305-2.165,1.305
				s-0.142-1.412,0.629-2.448C239.146,374.781,240.539,374.513,240.539,374.513z"/>
			<path style="fill:#FFFFFF;" d="M245.17,381.019c0,0,0.142,1.412-0.629,2.448c-0.772,1.036-2.165,1.305-2.165,1.305
				s-0.142-1.412,0.63-2.448C243.777,381.288,245.17,381.019,245.17,381.019z"/>
			<path style="fill:#FFFFFF;" d="M245.168,393.687c0,0-0.341,1.377-1.417,2.093c-1.075,0.716-2.478,0.5-2.478,0.5
				s0.341-1.377,1.417-2.093C243.766,393.471,245.168,393.687,245.168,393.687z"/>
			<path style="fill:#FFFFFF;" d="M219.736,393.687c0,0,0.341,1.377,1.417,2.093c1.075,0.716,2.477,0.5,2.477,0.5
				s-0.341-1.377-1.417-2.093C221.138,393.471,219.736,393.687,219.736,393.687z"/>
			<path style="fill:#FFFFFF;" d="M239.819,388.429c0,0,0.142,1.412-0.63,2.448c-0.771,1.036-2.165,1.305-2.165,1.305
				s-0.142-1.412,0.63-2.448C238.426,388.697,239.819,388.429,239.819,388.429z"/>
			<path style="fill:#FFFFFF;" d="M238.62,367.435c0,0,0.142,1.412-0.63,2.448c-0.772,1.036-2.165,1.305-2.165,1.305
				s-0.142-1.412,0.63-2.448C237.227,367.704,238.62,367.435,238.62,367.435z"/>
			<path style="fill:#FFFFFF;" d="M235.861,372.833c0,0,0.142,1.412-0.629,2.448c-0.772,1.036-2.165,1.305-2.165,1.305
				s-0.142-1.411,0.63-2.448C234.468,373.102,235.861,372.833,235.861,372.833z"/>
			<path style="fill:#FFFFFF;" d="M242.411,368.903c0,0,0.142,1.411-0.63,2.448c-0.771,1.036-2.165,1.305-2.165,1.305
				s-0.142-1.411,0.63-2.448C241.018,369.172,242.411,368.903,242.411,368.903z"/>
			<path style="fill:#FFFFFF;" d="M221.126,368.903c0,0-0.142,1.411,0.63,2.448c0.772,1.036,2.165,1.305,2.165,1.305
				s0.142-1.411-0.629-2.448C222.519,369.172,221.126,368.903,221.126,368.903z"/>
			<path style="fill:#FFFFFF;" d="M239.22,360.837c0,0,0.142,1.411-0.63,2.448c-0.771,1.036-2.165,1.305-2.165,1.305
				s-0.142-1.411,0.63-2.448C237.826,361.106,239.22,360.837,239.22,360.837z"/>
			<path style="fill:#FFFFFF;" d="M237.864,353.828c0,0,0.492,1.331,0.006,2.527c-0.487,1.197-1.767,1.807-1.767,1.807
				s-0.492-1.331-0.006-2.527C236.583,354.438,237.864,353.828,237.864,353.828z"/>
			<path style="fill:#FFFFFF;" d="M228.148,351.997c0,0,1.257,0.658,1.697,1.873c0.441,1.214-0.102,2.525-0.102,2.525
				s-1.257-0.658-1.697-1.873C227.605,353.308,228.148,351.997,228.148,351.997z"/>
			<path style="fill:#FFFFFF;" d="M232.678,360.378c0,0,0.895,1.101,0.821,2.39c-0.074,1.29-1.09,2.28-1.09,2.28
				s-0.895-1.101-0.821-2.39C231.663,361.369,232.678,360.378,232.678,360.378z"/>
			<path style="fill:#FFFFFF;" d="M232.439,347.902c0,0,0.895,1.101,0.821,2.39c-0.074,1.29-1.09,2.28-1.09,2.28
				s-0.895-1.1-0.821-2.39S232.439,347.902,232.439,347.902z"/>
			<path style="fill:#FFFFFF;" d="M222.27,374.513c0,0-0.142,1.412,0.63,2.448c0.771,1.036,2.165,1.305,2.165,1.305
				s0.142-1.412-0.63-2.448C223.663,374.781,222.27,374.513,222.27,374.513z"/>
			<path style="fill:#FFFFFF;" d="M219.631,382.19c0,0-0.142,1.412,0.63,2.448c0.772,1.036,2.165,1.305,2.165,1.305
				s0.142-1.412-0.629-2.448C221.024,382.459,219.631,382.19,219.631,382.19z"/>
			<path style="fill:#FFFFFF;" d="M226.636,384.978c0,0-0.142,1.411,0.629,2.448c0.772,1.036,2.165,1.305,2.165,1.305
				s0.142-1.412-0.63-2.448C228.029,385.246,226.636,384.978,226.636,384.978z"/>
			<path style="fill:#FFFFFF;" d="M228.552,374.34c0,0-0.54,1.312-0.098,2.526c0.442,1.214,1.7,1.87,1.7,1.87
				s0.54-1.312,0.098-2.526C229.81,374.996,228.552,374.34,228.552,374.34z"/>
			<path style="fill:#FFFFFF;" d="M223.591,402.648c0,0,1.418,0.026,2.388-0.828c0.97-0.854,1.123-2.264,1.123-2.264
				s-1.419-0.026-2.388,0.828C223.744,401.237,223.591,402.648,223.591,402.648z"/>
			<path style="fill:#FFFFFF;" d="M237.202,401.096c0,0,0.385,1.365,1.483,2.047c1.098,0.681,2.492,0.42,2.492,0.42
				s-0.385-1.365-1.483-2.047C238.597,400.835,237.202,401.096,237.202,401.096z"/>
			<path style="fill:#FFFFFF;" d="M225.173,367.435c0,0-0.142,1.412,0.63,2.448c0.771,1.036,2.165,1.305,2.165,1.305
				s0.142-1.412-0.63-2.448C226.566,367.704,225.173,367.435,225.173,367.435z"/>
			<path style="fill:#FFFFFF;" d="M225.149,361.197c0,0-0.142,1.411,0.629,2.448c0.772,1.036,2.165,1.305,2.165,1.305
				s0.142-1.411-0.63-2.448C226.542,361.466,225.149,361.197,225.149,361.197z"/>
		</g>
	</g>
</g>
</svg>
